<?xml version="1.0" encoding="utf-8" standalone="no"?>
<!DOCTYPE svg PUBLIC "-//W3C//DTD SVG 1.1//EN"
  "http://www.w3.org/Graphics/SVG/1.1/DTD/svg11.dtd">
<!-- Created with matplotlib (http://matplotlib.org/) -->
<svg height="432pt" version="1.1" viewBox="0 0 576 432" width="576pt" xmlns="http://www.w3.org/2000/svg" xmlns:xlink="http://www.w3.org/1999/xlink">
 <defs>
  <style type="text/css">
*{stroke-linecap:butt;stroke-linejoin:round;stroke-miterlimit:100000;}
  </style>
 </defs>
 <g id="figure_1">
  <g id="patch_1">
   <path d="M 0 432 
L 576 432 
L 576 0 
L 0 0 
z
" style="fill:#ffffff;"/>
  </g>
  <g id="axes_1">
   <g id="patch_2">
    <path d="M 72 388.8 
L 518.4 388.8 
L 518.4 43.2 
L 72 43.2 
z
" style="fill:#ffffff;"/>
   </g>
   <g id="PathCollection_1">
    <defs>
     <path d="M 0 2.236068 
C 0.593012 2.236068 1.161816 2.000462 1.581139 1.581139 
C 2.000462 1.161816 2.236068 0.593012 2.236068 0 
C 2.236068 -0.593012 2.000462 -1.161816 1.581139 -1.581139 
C 1.161816 -2.000462 0.593012 -2.236068 0 -2.236068 
C -0.593012 -2.236068 -1.161816 -2.000462 -1.581139 -1.581139 
C -2.000462 -1.161816 -2.236068 -0.593012 -2.236068 0 
C -2.236068 0.593012 -2.000462 1.161816 -1.581139 1.581139 
C -1.161816 2.000462 -0.593012 2.236068 0 2.236068 
z
" id="m0c5246d1d3" style="stroke:#000000;"/>
    </defs>
    <g clip-path="url(#pf3ddb53ba2)">
     <use style="fill:#0000ff;stroke:#000000;" x="109.2" xlink:href="#m0c5246d1d3" y="117.46339356"/>
     <use style="fill:#0000ff;stroke:#000000;" x="111.069346734" xlink:href="#m0c5246d1d3" y="128.207214798"/>
     <use style="fill:#0000ff;stroke:#000000;" x="112.938693467" xlink:href="#m0c5246d1d3" y="76.6989817972"/>
     <use style="fill:#0000ff;stroke:#000000;" x="114.808040201" xlink:href="#m0c5246d1d3" y="114.256888677"/>
     <use style="fill:#0000ff;stroke:#000000;" x="116.677386935" xlink:href="#m0c5246d1d3" y="146.931461846"/>
     <use style="fill:#0000ff;stroke:#000000;" x="118.546733668" xlink:href="#m0c5246d1d3" y="115.563288236"/>
     <use style="fill:#0000ff;stroke:#000000;" x="120.416080402" xlink:href="#m0c5246d1d3" y="133.685467009"/>
     <use style="fill:#0000ff;stroke:#000000;" x="122.285427136" xlink:href="#m0c5246d1d3" y="114.375758582"/>
     <use style="fill:#0000ff;stroke:#000000;" x="124.154773869" xlink:href="#m0c5246d1d3" y="172.136878444"/>
     <use style="fill:#0000ff;stroke:#000000;" x="126.024120603" xlink:href="#m0c5246d1d3" y="131.564125133"/>
     <use style="fill:#0000ff;stroke:#000000;" x="127.893467337" xlink:href="#m0c5246d1d3" y="119.819254738"/>
     <use style="fill:#0000ff;stroke:#000000;" x="129.76281407" xlink:href="#m0c5246d1d3" y="154.994982356"/>
     <use style="fill:#0000ff;stroke:#000000;" x="131.632160804" xlink:href="#m0c5246d1d3" y="207.887990423"/>
     <use style="fill:#0000ff;stroke:#000000;" x="133.501507538" xlink:href="#m0c5246d1d3" y="151.914738642"/>
     <use style="fill:#0000ff;stroke:#000000;" x="135.370854271" xlink:href="#m0c5246d1d3" y="140.415130899"/>
     <use style="fill:#0000ff;stroke:#000000;" x="137.240201005" xlink:href="#m0c5246d1d3" y="104.938948559"/>
     <use style="fill:#0000ff;stroke:#000000;" x="139.109547739" xlink:href="#m0c5246d1d3" y="182.79328876"/>
     <use style="fill:#0000ff;stroke:#000000;" x="140.978894472" xlink:href="#m0c5246d1d3" y="169.084953092"/>
     <use style="fill:#0000ff;stroke:#000000;" x="142.848241206" xlink:href="#m0c5246d1d3" y="163.754175194"/>
     <use style="fill:#0000ff;stroke:#000000;" x="144.71758794" xlink:href="#m0c5246d1d3" y="190.145168608"/>
     <use style="fill:#0000ff;stroke:#000000;" x="146.586934673" xlink:href="#m0c5246d1d3" y="169.437791629"/>
     <use style="fill:#0000ff;stroke:#000000;" x="148.456281407" xlink:href="#m0c5246d1d3" y="220.31067868"/>
     <use style="fill:#0000ff;stroke:#000000;" x="150.325628141" xlink:href="#m0c5246d1d3" y="183.374908451"/>
     <use style="fill:#0000ff;stroke:#000000;" x="152.194974874" xlink:href="#m0c5246d1d3" y="232.638479729"/>
     <use style="fill:#0000ff;stroke:#000000;" x="154.064321608" xlink:href="#m0c5246d1d3" y="177.909471414"/>
     <use style="fill:#0000ff;stroke:#000000;" x="155.933668342" xlink:href="#m0c5246d1d3" y="168.671548729"/>
     <use style="fill:#0000ff;stroke:#000000;" x="157.803015075" xlink:href="#m0c5246d1d3" y="193.63430003"/>
     <use style="fill:#0000ff;stroke:#000000;" x="159.672361809" xlink:href="#m0c5246d1d3" y="214.860600973"/>
     <use style="fill:#0000ff;stroke:#000000;" x="161.541708543" xlink:href="#m0c5246d1d3" y="252.309131638"/>
     <use style="fill:#0000ff;stroke:#000000;" x="163.411055276" xlink:href="#m0c5246d1d3" y="237.664705652"/>
     <use style="fill:#0000ff;stroke:#000000;" x="165.28040201" xlink:href="#m0c5246d1d3" y="238.080871725"/>
     <use style="fill:#0000ff;stroke:#000000;" x="167.149748744" xlink:href="#m0c5246d1d3" y="198.352073591"/>
     <use style="fill:#0000ff;stroke:#000000;" x="169.019095477" xlink:href="#m0c5246d1d3" y="264.189786091"/>
     <use style="fill:#0000ff;stroke:#000000;" x="170.888442211" xlink:href="#m0c5246d1d3" y="206.412695621"/>
     <use style="fill:#0000ff;stroke:#000000;" x="172.757788945" xlink:href="#m0c5246d1d3" y="221.565525926"/>
     <use style="fill:#0000ff;stroke:#000000;" x="174.627135678" xlink:href="#m0c5246d1d3" y="221.760162529"/>
     <use style="fill:#0000ff;stroke:#000000;" x="176.496482412" xlink:href="#m0c5246d1d3" y="214.954992492"/>
     <use style="fill:#0000ff;stroke:#000000;" x="178.365829146" xlink:href="#m0c5246d1d3" y="232.840119799"/>
     <use style="fill:#0000ff;stroke:#000000;" x="180.235175879" xlink:href="#m0c5246d1d3" y="221.496144911"/>
     <use style="fill:#0000ff;stroke:#000000;" x="182.104522613" xlink:href="#m0c5246d1d3" y="250.15125317"/>
     <use style="fill:#0000ff;stroke:#000000;" x="183.973869347" xlink:href="#m0c5246d1d3" y="221.814254759"/>
     <use style="fill:#0000ff;stroke:#000000;" x="185.84321608" xlink:href="#m0c5246d1d3" y="258.967702782"/>
     <use style="fill:#0000ff;stroke:#000000;" x="187.712562814" xlink:href="#m0c5246d1d3" y="257.690128843"/>
     <use style="fill:#0000ff;stroke:#000000;" x="189.581909548" xlink:href="#m0c5246d1d3" y="282.041332248"/>
     <use style="fill:#0000ff;stroke:#000000;" x="191.451256281" xlink:href="#m0c5246d1d3" y="262.572766402"/>
     <use style="fill:#0000ff;stroke:#000000;" x="193.320603015" xlink:href="#m0c5246d1d3" y="261.048884737"/>
     <use style="fill:#0000ff;stroke:#000000;" x="195.189949749" xlink:href="#m0c5246d1d3" y="254.698484002"/>
     <use style="fill:#0000ff;stroke:#000000;" x="197.059296482" xlink:href="#m0c5246d1d3" y="265.617600222"/>
     <use style="fill:#0000ff;stroke:#000000;" x="198.928643216" xlink:href="#m0c5246d1d3" y="313.95239256"/>
     <use style="fill:#0000ff;stroke:#000000;" x="200.79798995" xlink:href="#m0c5246d1d3" y="282.070341308"/>
     <use style="fill:#0000ff;stroke:#000000;" x="202.667336683" xlink:href="#m0c5246d1d3" y="288.69909707"/>
     <use style="fill:#0000ff;stroke:#000000;" x="204.536683417" xlink:href="#m0c5246d1d3" y="303.624202112"/>
     <use style="fill:#0000ff;stroke:#000000;" x="206.406030151" xlink:href="#m0c5246d1d3" y="303.283015855"/>
     <use style="fill:#0000ff;stroke:#000000;" x="208.275376884" xlink:href="#m0c5246d1d3" y="290.711278347"/>
     <use style="fill:#0000ff;stroke:#000000;" x="210.144723618" xlink:href="#m0c5246d1d3" y="276.942814261"/>
     <use style="fill:#0000ff;stroke:#000000;" x="212.014070352" xlink:href="#m0c5246d1d3" y="282.153526153"/>
     <use style="fill:#0000ff;stroke:#000000;" x="213.883417085" xlink:href="#m0c5246d1d3" y="296.136750729"/>
     <use style="fill:#0000ff;stroke:#000000;" x="215.752763819" xlink:href="#m0c5246d1d3" y="266.719582565"/>
     <use style="fill:#0000ff;stroke:#000000;" x="217.622110553" xlink:href="#m0c5246d1d3" y="310.684341365"/>
     <use style="fill:#0000ff;stroke:#000000;" x="219.491457286" xlink:href="#m0c5246d1d3" y="269.1218254"/>
     <use style="fill:#0000ff;stroke:#000000;" x="221.36080402" xlink:href="#m0c5246d1d3" y="311.870440932"/>
     <use style="fill:#0000ff;stroke:#000000;" x="223.230150754" xlink:href="#m0c5246d1d3" y="321.874991335"/>
     <use style="fill:#0000ff;stroke:#000000;" x="225.099497487" xlink:href="#m0c5246d1d3" y="345.54101942"/>
     <use style="fill:#0000ff;stroke:#000000;" x="226.968844221" xlink:href="#m0c5246d1d3" y="272.470825213"/>
     <use style="fill:#0000ff;stroke:#000000;" x="228.838190955" xlink:href="#m0c5246d1d3" y="315.181761384"/>
     <use style="fill:#0000ff;stroke:#000000;" x="230.707537688" xlink:href="#m0c5246d1d3" y="296.011288504"/>
     <use style="fill:#0000ff;stroke:#000000;" x="232.576884422" xlink:href="#m0c5246d1d3" y="298.95266656"/>
     <use style="fill:#0000ff;stroke:#000000;" x="234.446231156" xlink:href="#m0c5246d1d3" y="351.228404295"/>
     <use style="fill:#0000ff;stroke:#000000;" x="236.315577889" xlink:href="#m0c5246d1d3" y="304.006344021"/>
     <use style="fill:#0000ff;stroke:#000000;" x="238.184924623" xlink:href="#m0c5246d1d3" y="279.228277116"/>
     <use style="fill:#0000ff;stroke:#000000;" x="240.054271357" xlink:href="#m0c5246d1d3" y="317.474974556"/>
     <use style="fill:#0000ff;stroke:#000000;" x="241.92361809" xlink:href="#m0c5246d1d3" y="296.930586171"/>
     <use style="fill:#0000ff;stroke:#000000;" x="243.792964824" xlink:href="#m0c5246d1d3" y="318.053425004"/>
     <use style="fill:#0000ff;stroke:#000000;" x="245.662311558" xlink:href="#m0c5246d1d3" y="309.244945517"/>
     <use style="fill:#0000ff;stroke:#000000;" x="247.531658291" xlink:href="#m0c5246d1d3" y="288.455573608"/>
     <use style="fill:#0000ff;stroke:#000000;" x="249.401005025" xlink:href="#m0c5246d1d3" y="330.219090156"/>
     <use style="fill:#0000ff;stroke:#000000;" x="251.270351759" xlink:href="#m0c5246d1d3" y="335.677556471"/>
     <use style="fill:#0000ff;stroke:#000000;" x="253.139698492" xlink:href="#m0c5246d1d3" y="361.990194976"/>
     <use style="fill:#0000ff;stroke:#000000;" x="255.009045226" xlink:href="#m0c5246d1d3" y="335.867021012"/>
     <use style="fill:#0000ff;stroke:#000000;" x="256.87839196" xlink:href="#m0c5246d1d3" y="322.193271245"/>
     <use style="fill:#0000ff;stroke:#000000;" x="258.747738693" xlink:href="#m0c5246d1d3" y="316.422529203"/>
     <use style="fill:#0000ff;stroke:#000000;" x="260.617085427" xlink:href="#m0c5246d1d3" y="330.989091799"/>
     <use style="fill:#0000ff;stroke:#000000;" x="262.486432161" xlink:href="#m0c5246d1d3" y="325.554604187"/>
     <use style="fill:#0000ff;stroke:#000000;" x="264.355778894" xlink:href="#m0c5246d1d3" y="318.367946619"/>
     <use style="fill:#0000ff;stroke:#000000;" x="266.225125628" xlink:href="#m0c5246d1d3" y="351.353320554"/>
     <use style="fill:#0000ff;stroke:#000000;" x="268.094472362" xlink:href="#m0c5246d1d3" y="356.925316144"/>
     <use style="fill:#0000ff;stroke:#000000;" x="269.963819095" xlink:href="#m0c5246d1d3" y="337.935111448"/>
     <use style="fill:#0000ff;stroke:#000000;" x="271.833165829" xlink:href="#m0c5246d1d3" y="345.367350706"/>
     <use style="fill:#0000ff;stroke:#000000;" x="273.702512563" xlink:href="#m0c5246d1d3" y="323.530006142"/>
     <use style="fill:#0000ff;stroke:#000000;" x="275.571859296" xlink:href="#m0c5246d1d3" y="349.339425067"/>
     <use style="fill:#0000ff;stroke:#000000;" x="277.44120603" xlink:href="#m0c5246d1d3" y="351.919239157"/>
     <use style="fill:#0000ff;stroke:#000000;" x="279.310552764" xlink:href="#m0c5246d1d3" y="302.876088802"/>
     <use style="fill:#0000ff;stroke:#000000;" x="281.179899497" xlink:href="#m0c5246d1d3" y="337.428530288"/>
     <use style="fill:#0000ff;stroke:#000000;" x="283.049246231" xlink:href="#m0c5246d1d3" y="364.573405624"/>
     <use style="fill:#0000ff;stroke:#000000;" x="284.918592965" xlink:href="#m0c5246d1d3" y="344.275750474"/>
     <use style="fill:#0000ff;stroke:#000000;" x="286.787939698" xlink:href="#m0c5246d1d3" y="321.42473859"/>
     <use style="fill:#0000ff;stroke:#000000;" x="288.657286432" xlink:href="#m0c5246d1d3" y="327.068017953"/>
     <use style="fill:#0000ff;stroke:#000000;" x="290.526633166" xlink:href="#m0c5246d1d3" y="335.372829884"/>
     <use style="fill:#0000ff;stroke:#000000;" x="292.395979899" xlink:href="#m0c5246d1d3" y="333.111089193"/>
     <use style="fill:#0000ff;stroke:#000000;" x="294.265326633" xlink:href="#m0c5246d1d3" y="301.687033619"/>
     <use style="fill:#0000ff;stroke:#000000;" x="296.134673367" xlink:href="#m0c5246d1d3" y="330.134593007"/>
     <use style="fill:#0000ff;stroke:#000000;" x="298.004020101" xlink:href="#m0c5246d1d3" y="355.883917872"/>
     <use style="fill:#0000ff;stroke:#000000;" x="299.873366834" xlink:href="#m0c5246d1d3" y="352.308388118"/>
     <use style="fill:#0000ff;stroke:#000000;" x="301.742713568" xlink:href="#m0c5246d1d3" y="302.280003269"/>
     <use style="fill:#0000ff;stroke:#000000;" x="303.612060302" xlink:href="#m0c5246d1d3" y="313.823612419"/>
     <use style="fill:#0000ff;stroke:#000000;" x="305.481407035" xlink:href="#m0c5246d1d3" y="333.77711889"/>
     <use style="fill:#0000ff;stroke:#000000;" x="307.350753769" xlink:href="#m0c5246d1d3" y="344.035967465"/>
     <use style="fill:#0000ff;stroke:#000000;" x="309.220100503" xlink:href="#m0c5246d1d3" y="366.426408747"/>
     <use style="fill:#0000ff;stroke:#000000;" x="311.089447236" xlink:href="#m0c5246d1d3" y="319.023025991"/>
     <use style="fill:#0000ff;stroke:#000000;" x="312.95879397" xlink:href="#m0c5246d1d3" y="325.071037309"/>
     <use style="fill:#0000ff;stroke:#000000;" x="314.828140704" xlink:href="#m0c5246d1d3" y="333.590203704"/>
     <use style="fill:#0000ff;stroke:#000000;" x="316.697487437" xlink:href="#m0c5246d1d3" y="327.300382191"/>
     <use style="fill:#0000ff;stroke:#000000;" x="318.566834171" xlink:href="#m0c5246d1d3" y="313.632070438"/>
     <use style="fill:#0000ff;stroke:#000000;" x="320.436180905" xlink:href="#m0c5246d1d3" y="333.838242316"/>
     <use style="fill:#0000ff;stroke:#000000;" x="322.305527638" xlink:href="#m0c5246d1d3" y="321.26697205"/>
     <use style="fill:#0000ff;stroke:#000000;" x="324.174874372" xlink:href="#m0c5246d1d3" y="344.452649456"/>
     <use style="fill:#0000ff;stroke:#000000;" x="326.044221106" xlink:href="#m0c5246d1d3" y="333.114967073"/>
     <use style="fill:#0000ff;stroke:#000000;" x="327.913567839" xlink:href="#m0c5246d1d3" y="299.386270736"/>
     <use style="fill:#0000ff;stroke:#000000;" x="329.782914573" xlink:href="#m0c5246d1d3" y="340.736637702"/>
     <use style="fill:#0000ff;stroke:#000000;" x="331.652261307" xlink:href="#m0c5246d1d3" y="321.322245811"/>
     <use style="fill:#0000ff;stroke:#000000;" x="333.52160804" xlink:href="#m0c5246d1d3" y="359.38637117"/>
     <use style="fill:#0000ff;stroke:#000000;" x="335.390954774" xlink:href="#m0c5246d1d3" y="314.250160451"/>
     <use style="fill:#0000ff;stroke:#000000;" x="337.260301508" xlink:href="#m0c5246d1d3" y="318.177392554"/>
     <use style="fill:#0000ff;stroke:#000000;" x="339.129648241" xlink:href="#m0c5246d1d3" y="351.754728838"/>
     <use style="fill:#0000ff;stroke:#000000;" x="340.998994975" xlink:href="#m0c5246d1d3" y="321.179311888"/>
     <use style="fill:#0000ff;stroke:#000000;" x="342.868341709" xlink:href="#m0c5246d1d3" y="301.670088607"/>
     <use style="fill:#0000ff;stroke:#000000;" x="344.737688442" xlink:href="#m0c5246d1d3" y="342.586278886"/>
     <use style="fill:#0000ff;stroke:#000000;" x="346.607035176" xlink:href="#m0c5246d1d3" y="333.242140964"/>
     <use style="fill:#0000ff;stroke:#000000;" x="348.47638191" xlink:href="#m0c5246d1d3" y="293.00278225"/>
     <use style="fill:#0000ff;stroke:#000000;" x="350.345728643" xlink:href="#m0c5246d1d3" y="317.782174152"/>
     <use style="fill:#0000ff;stroke:#000000;" x="352.215075377" xlink:href="#m0c5246d1d3" y="316.04138476"/>
     <use style="fill:#0000ff;stroke:#000000;" x="354.084422111" xlink:href="#m0c5246d1d3" y="344.266165047"/>
     <use style="fill:#0000ff;stroke:#000000;" x="355.953768844" xlink:href="#m0c5246d1d3" y="353.489856836"/>
     <use style="fill:#0000ff;stroke:#000000;" x="357.823115578" xlink:href="#m0c5246d1d3" y="308.385101434"/>
     <use style="fill:#0000ff;stroke:#000000;" x="359.692462312" xlink:href="#m0c5246d1d3" y="295.98257373"/>
     <use style="fill:#0000ff;stroke:#000000;" x="361.561809045" xlink:href="#m0c5246d1d3" y="311.750716041"/>
     <use style="fill:#0000ff;stroke:#000000;" x="363.431155779" xlink:href="#m0c5246d1d3" y="319.963675681"/>
     <use style="fill:#0000ff;stroke:#000000;" x="365.300502513" xlink:href="#m0c5246d1d3" y="334.422136834"/>
     <use style="fill:#0000ff;stroke:#000000;" x="367.169849246" xlink:href="#m0c5246d1d3" y="294.855894878"/>
     <use style="fill:#0000ff;stroke:#000000;" x="369.03919598" xlink:href="#m0c5246d1d3" y="315.642240889"/>
     <use style="fill:#0000ff;stroke:#000000;" x="370.908542714" xlink:href="#m0c5246d1d3" y="306.601563674"/>
     <use style="fill:#0000ff;stroke:#000000;" x="372.777889447" xlink:href="#m0c5246d1d3" y="298.470904149"/>
     <use style="fill:#0000ff;stroke:#000000;" x="374.647236181" xlink:href="#m0c5246d1d3" y="317.900140908"/>
     <use style="fill:#0000ff;stroke:#000000;" x="376.516582915" xlink:href="#m0c5246d1d3" y="274.157210586"/>
     <use style="fill:#0000ff;stroke:#000000;" x="378.385929648" xlink:href="#m0c5246d1d3" y="298.426449761"/>
     <use style="fill:#0000ff;stroke:#000000;" x="380.255276382" xlink:href="#m0c5246d1d3" y="282.855267765"/>
     <use style="fill:#0000ff;stroke:#000000;" x="382.124623116" xlink:href="#m0c5246d1d3" y="290.51568772"/>
     <use style="fill:#0000ff;stroke:#000000;" x="383.993969849" xlink:href="#m0c5246d1d3" y="254.65742738"/>
     <use style="fill:#0000ff;stroke:#000000;" x="385.863316583" xlink:href="#m0c5246d1d3" y="259.876270932"/>
     <use style="fill:#0000ff;stroke:#000000;" x="387.732663317" xlink:href="#m0c5246d1d3" y="274.645385073"/>
     <use style="fill:#0000ff;stroke:#000000;" x="389.60201005" xlink:href="#m0c5246d1d3" y="303.769571325"/>
     <use style="fill:#0000ff;stroke:#000000;" x="391.471356784" xlink:href="#m0c5246d1d3" y="300.05801095"/>
     <use style="fill:#0000ff;stroke:#000000;" x="393.340703518" xlink:href="#m0c5246d1d3" y="274.907372721"/>
     <use style="fill:#0000ff;stroke:#000000;" x="395.210050251" xlink:href="#m0c5246d1d3" y="306.936069187"/>
     <use style="fill:#0000ff;stroke:#000000;" x="397.079396985" xlink:href="#m0c5246d1d3" y="248.396768082"/>
     <use style="fill:#0000ff;stroke:#000000;" x="398.948743719" xlink:href="#m0c5246d1d3" y="228.62841245"/>
     <use style="fill:#0000ff;stroke:#000000;" x="400.818090452" xlink:href="#m0c5246d1d3" y="246.767434878"/>
     <use style="fill:#0000ff;stroke:#000000;" x="402.687437186" xlink:href="#m0c5246d1d3" y="282.210746012"/>
     <use style="fill:#0000ff;stroke:#000000;" x="404.55678392" xlink:href="#m0c5246d1d3" y="257.803440239"/>
     <use style="fill:#0000ff;stroke:#000000;" x="406.426130653" xlink:href="#m0c5246d1d3" y="221.893136099"/>
     <use style="fill:#0000ff;stroke:#000000;" x="408.295477387" xlink:href="#m0c5246d1d3" y="259.162514257"/>
     <use style="fill:#0000ff;stroke:#000000;" x="410.164824121" xlink:href="#m0c5246d1d3" y="221.80822547"/>
     <use style="fill:#0000ff;stroke:#000000;" x="412.034170854" xlink:href="#m0c5246d1d3" y="218.650286029"/>
     <use style="fill:#0000ff;stroke:#000000;" x="413.903517588" xlink:href="#m0c5246d1d3" y="245.539155501"/>
     <use style="fill:#0000ff;stroke:#000000;" x="415.772864322" xlink:href="#m0c5246d1d3" y="258.688671855"/>
     <use style="fill:#0000ff;stroke:#000000;" x="417.642211055" xlink:href="#m0c5246d1d3" y="233.636262822"/>
     <use style="fill:#0000ff;stroke:#000000;" x="419.511557789" xlink:href="#m0c5246d1d3" y="245.655830274"/>
     <use style="fill:#0000ff;stroke:#000000;" x="421.380904523" xlink:href="#m0c5246d1d3" y="226.613195609"/>
     <use style="fill:#0000ff;stroke:#000000;" x="423.250251256" xlink:href="#m0c5246d1d3" y="233.286715328"/>
     <use style="fill:#0000ff;stroke:#000000;" x="425.11959799" xlink:href="#m0c5246d1d3" y="204.009940526"/>
     <use style="fill:#0000ff;stroke:#000000;" x="426.988944724" xlink:href="#m0c5246d1d3" y="238.451816268"/>
     <use style="fill:#0000ff;stroke:#000000;" x="428.858291457" xlink:href="#m0c5246d1d3" y="201.856871909"/>
     <use style="fill:#0000ff;stroke:#000000;" x="430.727638191" xlink:href="#m0c5246d1d3" y="255.655730437"/>
     <use style="fill:#0000ff;stroke:#000000;" x="432.596984925" xlink:href="#m0c5246d1d3" y="232.855580527"/>
     <use style="fill:#0000ff;stroke:#000000;" x="434.466331658" xlink:href="#m0c5246d1d3" y="207.054237799"/>
     <use style="fill:#0000ff;stroke:#000000;" x="436.335678392" xlink:href="#m0c5246d1d3" y="183.153380347"/>
     <use style="fill:#0000ff;stroke:#000000;" x="438.205025126" xlink:href="#m0c5246d1d3" y="209.702414852"/>
     <use style="fill:#0000ff;stroke:#000000;" x="440.074371859" xlink:href="#m0c5246d1d3" y="209.159041308"/>
     <use style="fill:#0000ff;stroke:#000000;" x="441.943718593" xlink:href="#m0c5246d1d3" y="211.862133127"/>
     <use style="fill:#0000ff;stroke:#000000;" x="443.813065327" xlink:href="#m0c5246d1d3" y="178.022296344"/>
     <use style="fill:#0000ff;stroke:#000000;" x="445.68241206" xlink:href="#m0c5246d1d3" y="167.668610852"/>
     <use style="fill:#0000ff;stroke:#000000;" x="447.551758794" xlink:href="#m0c5246d1d3" y="160.281705769"/>
     <use style="fill:#0000ff;stroke:#000000;" x="449.421105528" xlink:href="#m0c5246d1d3" y="188.966506041"/>
     <use style="fill:#0000ff;stroke:#000000;" x="451.290452261" xlink:href="#m0c5246d1d3" y="124.581334729"/>
     <use style="fill:#0000ff;stroke:#000000;" x="453.159798995" xlink:href="#m0c5246d1d3" y="130.928221481"/>
     <use style="fill:#0000ff;stroke:#000000;" x="455.029145729" xlink:href="#m0c5246d1d3" y="145.302025853"/>
     <use style="fill:#0000ff;stroke:#000000;" x="456.898492462" xlink:href="#m0c5246d1d3" y="161.164545438"/>
     <use style="fill:#0000ff;stroke:#000000;" x="458.767839196" xlink:href="#m0c5246d1d3" y="147.88130264"/>
     <use style="fill:#0000ff;stroke:#000000;" x="460.63718593" xlink:href="#m0c5246d1d3" y="133.16481886"/>
     <use style="fill:#0000ff;stroke:#000000;" x="462.506532663" xlink:href="#m0c5246d1d3" y="143.93628872"/>
     <use style="fill:#0000ff;stroke:#000000;" x="464.375879397" xlink:href="#m0c5246d1d3" y="114.686587199"/>
     <use style="fill:#0000ff;stroke:#000000;" x="466.245226131" xlink:href="#m0c5246d1d3" y="123.385775989"/>
     <use style="fill:#0000ff;stroke:#000000;" x="468.114572864" xlink:href="#m0c5246d1d3" y="139.681503594"/>
     <use style="fill:#0000ff;stroke:#000000;" x="469.983919598" xlink:href="#m0c5246d1d3" y="115.404643702"/>
     <use style="fill:#0000ff;stroke:#000000;" x="471.853266332" xlink:href="#m0c5246d1d3" y="111.050612086"/>
     <use style="fill:#0000ff;stroke:#000000;" x="473.722613065" xlink:href="#m0c5246d1d3" y="107.567941337"/>
     <use style="fill:#0000ff;stroke:#000000;" x="475.591959799" xlink:href="#m0c5246d1d3" y="103.290889015"/>
     <use style="fill:#0000ff;stroke:#000000;" x="477.461306533" xlink:href="#m0c5246d1d3" y="100.661577265"/>
     <use style="fill:#0000ff;stroke:#000000;" x="479.330653266" xlink:href="#m0c5246d1d3" y="93.6559559093"/>
     <use style="fill:#0000ff;stroke:#000000;" x="481.2" xlink:href="#m0c5246d1d3" y="95.0199716735"/>
    </g>
   </g>
   <g id="line2d_1">
    <path clip-path="url(#pf3ddb53ba2)" d="M 109.2 111.61591 
L 131.632161 154.510203 
L 144.717588 179.035896 
L 154.064322 196.143507 
L 163.411055 212.791914 
L 170.888442 225.709467 
L 178.365829 238.211037 
L 185.843216 250.242663 
L 193.320603 261.750359 
L 198.928643 270.005496 
L 204.536683 277.914681 
L 210.144724 285.456347 
L 215.752764 292.610467 
L 221.360804 299.357049 
L 226.968844 305.677486 
L 232.576884 311.55377 
L 238.184925 316.969326 
L 241.923618 320.316074 
L 245.662312 323.446684 
L 249.401005 326.357302 
L 253.139698 329.044139 
L 256.878392 331.503431 
L 260.617085 333.732234 
L 264.355779 335.727413 
L 268.094472 337.486687 
L 271.833166 339.0073 
L 275.571859 340.287579 
L 279.310553 341.325564 
L 283.049246 342.120269 
L 286.78794 342.670311 
L 290.526633 342.975266 
L 294.265327 343.034518 
L 298.00402 342.848317 
L 301.742714 342.417074 
L 305.481407 341.741228 
L 309.220101 340.82197 
L 312.958794 339.660697 
L 316.697487 338.259234 
L 320.436181 336.61962 
L 324.174874 334.744458 
L 327.913568 332.636421 
L 331.652261 330.298869 
L 335.390955 327.735124 
L 339.129648 324.949258 
L 342.868342 321.945395 
L 346.607035 318.728096 
L 350.345729 315.302251 
L 355.953769 309.783729 
L 361.561809 303.826534 
L 367.169849 297.450699 
L 372.777889 290.678 
L 378.38593 283.531197 
L 383.99397 276.034444 
L 389.60201 268.212667 
L 397.079397 257.323283 
L 404.556784 245.965727 
L 412.034171 234.205101 
L 421.380905 219.038392 
L 432.596985 200.32534 
L 447.551759 174.86526 
L 471.853266 133.425546 
L 481.2 117.802605 
L 481.2 117.802605 
" style="fill:none;stroke:#ff0000;stroke-linecap:square;stroke-width:5.0;"/>
   </g>
   <g id="patch_3">
    <path d="M 518.4 388.8 
L 518.4 43.2 
" style="fill:none;stroke:#000000;stroke-linecap:square;stroke-linejoin:miter;"/>
   </g>
   <g id="patch_4">
    <path d="M 72 43.2 
L 518.4 43.2 
" style="fill:none;stroke:#000000;stroke-linecap:square;stroke-linejoin:miter;"/>
   </g>
   <g id="patch_5">
    <path d="M 72 388.8 
L 518.4 388.8 
" style="fill:none;stroke:#000000;stroke-linecap:square;stroke-linejoin:miter;"/>
   </g>
   <g id="patch_6">
    <path d="M 72 388.8 
L 72 43.2 
" style="fill:none;stroke:#000000;stroke-linecap:square;stroke-linejoin:miter;"/>
   </g>
   <g id="matplotlib.axis_1">
    <g id="xtick_1">
     <g id="line2d_2">
      <defs>
       <path d="M 0 0 
L 0 -4 
" id="m209508a16c" style="stroke:#000000;stroke-width:0.5;"/>
      </defs>
      <g>
       <use style="stroke:#000000;stroke-width:0.5;" x="72.0" xlink:href="#m209508a16c" y="388.8"/>
      </g>
     </g>
     <g id="line2d_3">
      <defs>
       <path d="M 0 0 
L 0 4 
" id="mbfb120f37d" style="stroke:#000000;stroke-width:0.5;"/>
      </defs>
      <g>
       <use style="stroke:#000000;stroke-width:0.5;" x="72.0" xlink:href="#mbfb120f37d" y="43.2"/>
      </g>
     </g>
     <g id="text_1">
      <!-- −0.6 -->
      <defs>
       <path d="M 31.78125 66.40625 
Q 24.171875 66.40625 20.328125 58.90625 
Q 16.5 51.421875 16.5 36.375 
Q 16.5 21.390625 20.328125 13.890625 
Q 24.171875 6.390625 31.78125 6.390625 
Q 39.453125 6.390625 43.28125 13.890625 
Q 47.125 21.390625 47.125 36.375 
Q 47.125 51.421875 43.28125 58.90625 
Q 39.453125 66.40625 31.78125 66.40625 
M 31.78125 74.21875 
Q 44.046875 74.21875 50.515625 64.515625 
Q 56.984375 54.828125 56.984375 36.375 
Q 56.984375 17.96875 50.515625 8.265625 
Q 44.046875 -1.421875 31.78125 -1.421875 
Q 19.53125 -1.421875 13.0625 8.265625 
Q 6.59375 17.96875 6.59375 36.375 
Q 6.59375 54.828125 13.0625 64.515625 
Q 19.53125 74.21875 31.78125 74.21875 
" id="BitstreamVeraSans-Roman-30"/>
       <path d="M 10.59375 35.5 
L 73.1875 35.5 
L 73.1875 27.203125 
L 10.59375 27.203125 
z
" id="BitstreamVeraSans-Roman-2212"/>
       <path d="M 10.6875 12.40625 
L 21 12.40625 
L 21 0 
L 10.6875 0 
z
" id="BitstreamVeraSans-Roman-2e"/>
       <path d="M 33.015625 40.375 
Q 26.375 40.375 22.484375 35.828125 
Q 18.609375 31.296875 18.609375 23.390625 
Q 18.609375 15.53125 22.484375 10.953125 
Q 26.375 6.390625 33.015625 6.390625 
Q 39.65625 6.390625 43.53125 10.953125 
Q 47.40625 15.53125 47.40625 23.390625 
Q 47.40625 31.296875 43.53125 35.828125 
Q 39.65625 40.375 33.015625 40.375 
M 52.59375 71.296875 
L 52.59375 62.3125 
Q 48.875 64.0625 45.09375 64.984375 
Q 41.3125 65.921875 37.59375 65.921875 
Q 27.828125 65.921875 22.671875 59.328125 
Q 17.53125 52.734375 16.796875 39.40625 
Q 19.671875 43.65625 24.015625 45.921875 
Q 28.375 48.1875 33.59375 48.1875 
Q 44.578125 48.1875 50.953125 41.515625 
Q 57.328125 34.859375 57.328125 23.390625 
Q 57.328125 12.15625 50.6875 5.359375 
Q 44.046875 -1.421875 33.015625 -1.421875 
Q 20.359375 -1.421875 13.671875 8.265625 
Q 6.984375 17.96875 6.984375 36.375 
Q 6.984375 53.65625 15.1875 63.9375 
Q 23.390625 74.21875 37.203125 74.21875 
Q 40.921875 74.21875 44.703125 73.484375 
Q 48.484375 72.75 52.59375 71.296875 
" id="BitstreamVeraSans-Roman-36"/>
      </defs>
      <g transform="translate(57.4303125 401.918125)scale(0.12 -0.12)">
       <use xlink:href="#BitstreamVeraSans-Roman-2212"/>
       <use x="83.7890625" xlink:href="#BitstreamVeraSans-Roman-30"/>
       <use x="147.412109375" xlink:href="#BitstreamVeraSans-Roman-2e"/>
       <use x="179.19921875" xlink:href="#BitstreamVeraSans-Roman-36"/>
      </g>
     </g>
    </g>
    <g id="xtick_2">
     <g id="line2d_4">
      <g>
       <use style="stroke:#000000;stroke-width:0.5;" x="146.4" xlink:href="#m209508a16c" y="388.8"/>
      </g>
     </g>
     <g id="line2d_5">
      <g>
       <use style="stroke:#000000;stroke-width:0.5;" x="146.4" xlink:href="#mbfb120f37d" y="43.2"/>
      </g>
     </g>
     <g id="text_2">
      <!-- −0.4 -->
      <defs>
       <path d="M 37.796875 64.3125 
L 12.890625 25.390625 
L 37.796875 25.390625 
z
M 35.203125 72.90625 
L 47.609375 72.90625 
L 47.609375 25.390625 
L 58.015625 25.390625 
L 58.015625 17.1875 
L 47.609375 17.1875 
L 47.609375 0 
L 37.796875 0 
L 37.796875 17.1875 
L 4.890625 17.1875 
L 4.890625 26.703125 
z
" id="BitstreamVeraSans-Roman-34"/>
      </defs>
      <g transform="translate(131.8303125 401.918125)scale(0.12 -0.12)">
       <use xlink:href="#BitstreamVeraSans-Roman-2212"/>
       <use x="83.7890625" xlink:href="#BitstreamVeraSans-Roman-30"/>
       <use x="147.412109375" xlink:href="#BitstreamVeraSans-Roman-2e"/>
       <use x="179.19921875" xlink:href="#BitstreamVeraSans-Roman-34"/>
      </g>
     </g>
    </g>
    <g id="xtick_3">
     <g id="line2d_6">
      <g>
       <use style="stroke:#000000;stroke-width:0.5;" x="220.8" xlink:href="#m209508a16c" y="388.8"/>
      </g>
     </g>
     <g id="line2d_7">
      <g>
       <use style="stroke:#000000;stroke-width:0.5;" x="220.8" xlink:href="#mbfb120f37d" y="43.2"/>
      </g>
     </g>
     <g id="text_3">
      <!-- −0.2 -->
      <defs>
       <path d="M 19.1875 8.296875 
L 53.609375 8.296875 
L 53.609375 0 
L 7.328125 0 
L 7.328125 8.296875 
Q 12.9375 14.109375 22.625 23.890625 
Q 32.328125 33.6875 34.8125 36.53125 
Q 39.546875 41.84375 41.421875 45.53125 
Q 43.3125 49.21875 43.3125 52.78125 
Q 43.3125 58.59375 39.234375 62.25 
Q 35.15625 65.921875 28.609375 65.921875 
Q 23.96875 65.921875 18.8125 64.3125 
Q 13.671875 62.703125 7.8125 59.421875 
L 7.8125 69.390625 
Q 13.765625 71.78125 18.9375 73 
Q 24.125 74.21875 28.421875 74.21875 
Q 39.75 74.21875 46.484375 68.546875 
Q 53.21875 62.890625 53.21875 53.421875 
Q 53.21875 48.921875 51.53125 44.890625 
Q 49.859375 40.875 45.40625 35.40625 
Q 44.1875 33.984375 37.640625 27.21875 
Q 31.109375 20.453125 19.1875 8.296875 
" id="BitstreamVeraSans-Roman-32"/>
      </defs>
      <g transform="translate(206.2303125 401.918125)scale(0.12 -0.12)">
       <use xlink:href="#BitstreamVeraSans-Roman-2212"/>
       <use x="83.7890625" xlink:href="#BitstreamVeraSans-Roman-30"/>
       <use x="147.412109375" xlink:href="#BitstreamVeraSans-Roman-2e"/>
       <use x="179.19921875" xlink:href="#BitstreamVeraSans-Roman-32"/>
      </g>
     </g>
    </g>
    <g id="xtick_4">
     <g id="line2d_8">
      <g>
       <use style="stroke:#000000;stroke-width:0.5;" x="295.2" xlink:href="#m209508a16c" y="388.8"/>
      </g>
     </g>
     <g id="line2d_9">
      <g>
       <use style="stroke:#000000;stroke-width:0.5;" x="295.2" xlink:href="#mbfb120f37d" y="43.2"/>
      </g>
     </g>
     <g id="text_4">
      <!-- 0.0 -->
      <g transform="translate(285.658125 401.918125)scale(0.12 -0.12)">
       <use xlink:href="#BitstreamVeraSans-Roman-30"/>
       <use x="63.623046875" xlink:href="#BitstreamVeraSans-Roman-2e"/>
       <use x="95.41015625" xlink:href="#BitstreamVeraSans-Roman-30"/>
      </g>
     </g>
    </g>
    <g id="xtick_5">
     <g id="line2d_10">
      <g>
       <use style="stroke:#000000;stroke-width:0.5;" x="369.6" xlink:href="#m209508a16c" y="388.8"/>
      </g>
     </g>
     <g id="line2d_11">
      <g>
       <use style="stroke:#000000;stroke-width:0.5;" x="369.6" xlink:href="#mbfb120f37d" y="43.2"/>
      </g>
     </g>
     <g id="text_5">
      <!-- 0.2 -->
      <g transform="translate(360.058125 401.918125)scale(0.12 -0.12)">
       <use xlink:href="#BitstreamVeraSans-Roman-30"/>
       <use x="63.623046875" xlink:href="#BitstreamVeraSans-Roman-2e"/>
       <use x="95.41015625" xlink:href="#BitstreamVeraSans-Roman-32"/>
      </g>
     </g>
    </g>
    <g id="xtick_6">
     <g id="line2d_12">
      <g>
       <use style="stroke:#000000;stroke-width:0.5;" x="444.0" xlink:href="#m209508a16c" y="388.8"/>
      </g>
     </g>
     <g id="line2d_13">
      <g>
       <use style="stroke:#000000;stroke-width:0.5;" x="444.0" xlink:href="#mbfb120f37d" y="43.2"/>
      </g>
     </g>
     <g id="text_6">
      <!-- 0.4 -->
      <g transform="translate(434.458125 401.918125)scale(0.12 -0.12)">
       <use xlink:href="#BitstreamVeraSans-Roman-30"/>
       <use x="63.623046875" xlink:href="#BitstreamVeraSans-Roman-2e"/>
       <use x="95.41015625" xlink:href="#BitstreamVeraSans-Roman-34"/>
      </g>
     </g>
    </g>
    <g id="xtick_7">
     <g id="line2d_14">
      <g>
       <use style="stroke:#000000;stroke-width:0.5;" x="518.4" xlink:href="#m209508a16c" y="388.8"/>
      </g>
     </g>
     <g id="line2d_15">
      <g>
       <use style="stroke:#000000;stroke-width:0.5;" x="518.4" xlink:href="#mbfb120f37d" y="43.2"/>
      </g>
     </g>
     <g id="text_7">
      <!-- 0.6 -->
      <g transform="translate(508.858125 401.918125)scale(0.12 -0.12)">
       <use xlink:href="#BitstreamVeraSans-Roman-30"/>
       <use x="63.623046875" xlink:href="#BitstreamVeraSans-Roman-2e"/>
       <use x="95.41015625" xlink:href="#BitstreamVeraSans-Roman-36"/>
      </g>
     </g>
    </g>
   </g>
   <g id="matplotlib.axis_2">
    <g id="ytick_1">
     <g id="line2d_16">
      <defs>
       <path d="M 0 0 
L 4 0 
" id="m36165f4732" style="stroke:#000000;stroke-width:0.5;"/>
      </defs>
      <g>
       <use style="stroke:#000000;stroke-width:0.5;" x="72.0" xlink:href="#m36165f4732" y="388.8"/>
      </g>
     </g>
     <g id="line2d_17">
      <defs>
       <path d="M 0 0 
L -4 0 
" id="mc3cd9e5919" style="stroke:#000000;stroke-width:0.5;"/>
      </defs>
      <g>
       <use style="stroke:#000000;stroke-width:0.5;" x="518.4" xlink:href="#mc3cd9e5919" y="388.8"/>
      </g>
     </g>
     <g id="text_8">
      <!-- −0.05 -->
      <defs>
       <path d="M 10.796875 72.90625 
L 49.515625 72.90625 
L 49.515625 64.59375 
L 19.828125 64.59375 
L 19.828125 46.734375 
Q 21.96875 47.46875 24.109375 47.828125 
Q 26.265625 48.1875 28.421875 48.1875 
Q 40.625 48.1875 47.75 41.5 
Q 54.890625 34.8125 54.890625 23.390625 
Q 54.890625 11.625 47.5625 5.09375 
Q 40.234375 -1.421875 26.90625 -1.421875 
Q 22.3125 -1.421875 17.546875 -0.640625 
Q 12.796875 0.140625 7.71875 1.703125 
L 7.71875 11.625 
Q 12.109375 9.234375 16.796875 8.0625 
Q 21.484375 6.890625 26.703125 6.890625 
Q 35.15625 6.890625 40.078125 11.328125 
Q 45.015625 15.765625 45.015625 23.390625 
Q 45.015625 31 40.078125 35.4375 
Q 35.15625 39.890625 26.703125 39.890625 
Q 22.75 39.890625 18.8125 39.015625 
Q 14.890625 38.140625 10.796875 36.28125 
z
" id="BitstreamVeraSans-Roman-35"/>
      </defs>
      <g transform="translate(31.225625 392.11125)scale(0.12 -0.12)">
       <use xlink:href="#BitstreamVeraSans-Roman-2212"/>
       <use x="83.7890625" xlink:href="#BitstreamVeraSans-Roman-30"/>
       <use x="147.412109375" xlink:href="#BitstreamVeraSans-Roman-2e"/>
       <use x="179.19921875" xlink:href="#BitstreamVeraSans-Roman-30"/>
       <use x="242.822265625" xlink:href="#BitstreamVeraSans-Roman-35"/>
      </g>
     </g>
    </g>
    <g id="ytick_2">
     <g id="line2d_18">
      <g>
       <use style="stroke:#000000;stroke-width:0.5;" x="72.0" xlink:href="#m36165f4732" y="339.428571429"/>
      </g>
     </g>
     <g id="line2d_19">
      <g>
       <use style="stroke:#000000;stroke-width:0.5;" x="518.4" xlink:href="#mc3cd9e5919" y="339.428571429"/>
      </g>
     </g>
     <g id="text_9">
      <!-- 0.00 -->
      <g transform="translate(41.28125 342.739821429)scale(0.12 -0.12)">
       <use xlink:href="#BitstreamVeraSans-Roman-30"/>
       <use x="63.623046875" xlink:href="#BitstreamVeraSans-Roman-2e"/>
       <use x="95.41015625" xlink:href="#BitstreamVeraSans-Roman-30"/>
       <use x="159.033203125" xlink:href="#BitstreamVeraSans-Roman-30"/>
      </g>
     </g>
    </g>
    <g id="ytick_3">
     <g id="line2d_20">
      <g>
       <use style="stroke:#000000;stroke-width:0.5;" x="72.0" xlink:href="#m36165f4732" y="290.057142857"/>
      </g>
     </g>
     <g id="line2d_21">
      <g>
       <use style="stroke:#000000;stroke-width:0.5;" x="518.4" xlink:href="#mc3cd9e5919" y="290.057142857"/>
      </g>
     </g>
     <g id="text_10">
      <!-- 0.05 -->
      <g transform="translate(41.28125 293.368392857)scale(0.12 -0.12)">
       <use xlink:href="#BitstreamVeraSans-Roman-30"/>
       <use x="63.623046875" xlink:href="#BitstreamVeraSans-Roman-2e"/>
       <use x="95.41015625" xlink:href="#BitstreamVeraSans-Roman-30"/>
       <use x="159.033203125" xlink:href="#BitstreamVeraSans-Roman-35"/>
      </g>
     </g>
    </g>
    <g id="ytick_4">
     <g id="line2d_22">
      <g>
       <use style="stroke:#000000;stroke-width:0.5;" x="72.0" xlink:href="#m36165f4732" y="240.685714286"/>
      </g>
     </g>
     <g id="line2d_23">
      <g>
       <use style="stroke:#000000;stroke-width:0.5;" x="518.4" xlink:href="#mc3cd9e5919" y="240.685714286"/>
      </g>
     </g>
     <g id="text_11">
      <!-- 0.10 -->
      <defs>
       <path d="M 12.40625 8.296875 
L 28.515625 8.296875 
L 28.515625 63.921875 
L 10.984375 60.40625 
L 10.984375 69.390625 
L 28.421875 72.90625 
L 38.28125 72.90625 
L 38.28125 8.296875 
L 54.390625 8.296875 
L 54.390625 0 
L 12.40625 0 
z
" id="BitstreamVeraSans-Roman-31"/>
      </defs>
      <g transform="translate(41.28125 243.996964286)scale(0.12 -0.12)">
       <use xlink:href="#BitstreamVeraSans-Roman-30"/>
       <use x="63.623046875" xlink:href="#BitstreamVeraSans-Roman-2e"/>
       <use x="95.41015625" xlink:href="#BitstreamVeraSans-Roman-31"/>
       <use x="159.033203125" xlink:href="#BitstreamVeraSans-Roman-30"/>
      </g>
     </g>
    </g>
    <g id="ytick_5">
     <g id="line2d_24">
      <g>
       <use style="stroke:#000000;stroke-width:0.5;" x="72.0" xlink:href="#m36165f4732" y="191.314285714"/>
      </g>
     </g>
     <g id="line2d_25">
      <g>
       <use style="stroke:#000000;stroke-width:0.5;" x="518.4" xlink:href="#mc3cd9e5919" y="191.314285714"/>
      </g>
     </g>
     <g id="text_12">
      <!-- 0.15 -->
      <g transform="translate(41.28125 194.625535714)scale(0.12 -0.12)">
       <use xlink:href="#BitstreamVeraSans-Roman-30"/>
       <use x="63.623046875" xlink:href="#BitstreamVeraSans-Roman-2e"/>
       <use x="95.41015625" xlink:href="#BitstreamVeraSans-Roman-31"/>
       <use x="159.033203125" xlink:href="#BitstreamVeraSans-Roman-35"/>
      </g>
     </g>
    </g>
    <g id="ytick_6">
     <g id="line2d_26">
      <g>
       <use style="stroke:#000000;stroke-width:0.5;" x="72.0" xlink:href="#m36165f4732" y="141.942857143"/>
      </g>
     </g>
     <g id="line2d_27">
      <g>
       <use style="stroke:#000000;stroke-width:0.5;" x="518.4" xlink:href="#mc3cd9e5919" y="141.942857143"/>
      </g>
     </g>
     <g id="text_13">
      <!-- 0.20 -->
      <g transform="translate(41.28125 145.254107143)scale(0.12 -0.12)">
       <use xlink:href="#BitstreamVeraSans-Roman-30"/>
       <use x="63.623046875" xlink:href="#BitstreamVeraSans-Roman-2e"/>
       <use x="95.41015625" xlink:href="#BitstreamVeraSans-Roman-32"/>
       <use x="159.033203125" xlink:href="#BitstreamVeraSans-Roman-30"/>
      </g>
     </g>
    </g>
    <g id="ytick_7">
     <g id="line2d_28">
      <g>
       <use style="stroke:#000000;stroke-width:0.5;" x="72.0" xlink:href="#m36165f4732" y="92.5714285714"/>
      </g>
     </g>
     <g id="line2d_29">
      <g>
       <use style="stroke:#000000;stroke-width:0.5;" x="518.4" xlink:href="#mc3cd9e5919" y="92.5714285714"/>
      </g>
     </g>
     <g id="text_14">
      <!-- 0.25 -->
      <g transform="translate(41.28125 95.8826785714)scale(0.12 -0.12)">
       <use xlink:href="#BitstreamVeraSans-Roman-30"/>
       <use x="63.623046875" xlink:href="#BitstreamVeraSans-Roman-2e"/>
       <use x="95.41015625" xlink:href="#BitstreamVeraSans-Roman-32"/>
       <use x="159.033203125" xlink:href="#BitstreamVeraSans-Roman-35"/>
      </g>
     </g>
    </g>
    <g id="ytick_8">
     <g id="line2d_30">
      <g>
       <use style="stroke:#000000;stroke-width:0.5;" x="72.0" xlink:href="#m36165f4732" y="43.2"/>
      </g>
     </g>
     <g id="line2d_31">
      <g>
       <use style="stroke:#000000;stroke-width:0.5;" x="518.4" xlink:href="#mc3cd9e5919" y="43.2"/>
      </g>
     </g>
     <g id="text_15">
      <!-- 0.30 -->
      <defs>
       <path d="M 40.578125 39.3125 
Q 47.65625 37.796875 51.625 33 
Q 55.609375 28.21875 55.609375 21.1875 
Q 55.609375 10.40625 48.1875 4.484375 
Q 40.765625 -1.421875 27.09375 -1.421875 
Q 22.515625 -1.421875 17.65625 -0.515625 
Q 12.796875 0.390625 7.625 2.203125 
L 7.625 11.71875 
Q 11.71875 9.328125 16.59375 8.109375 
Q 21.484375 6.890625 26.8125 6.890625 
Q 36.078125 6.890625 40.9375 10.546875 
Q 45.796875 14.203125 45.796875 21.1875 
Q 45.796875 27.640625 41.28125 31.265625 
Q 36.765625 34.90625 28.71875 34.90625 
L 20.21875 34.90625 
L 20.21875 43.015625 
L 29.109375 43.015625 
Q 36.375 43.015625 40.234375 45.921875 
Q 44.09375 48.828125 44.09375 54.296875 
Q 44.09375 59.90625 40.109375 62.90625 
Q 36.140625 65.921875 28.71875 65.921875 
Q 24.65625 65.921875 20.015625 65.03125 
Q 15.375 64.15625 9.8125 62.3125 
L 9.8125 71.09375 
Q 15.4375 72.65625 20.34375 73.4375 
Q 25.25 74.21875 29.59375 74.21875 
Q 40.828125 74.21875 47.359375 69.109375 
Q 53.90625 64.015625 53.90625 55.328125 
Q 53.90625 49.265625 50.4375 45.09375 
Q 46.96875 40.921875 40.578125 39.3125 
" id="BitstreamVeraSans-Roman-33"/>
      </defs>
      <g transform="translate(41.28125 46.51125)scale(0.12 -0.12)">
       <use xlink:href="#BitstreamVeraSans-Roman-30"/>
       <use x="63.623046875" xlink:href="#BitstreamVeraSans-Roman-2e"/>
       <use x="95.41015625" xlink:href="#BitstreamVeraSans-Roman-33"/>
       <use x="159.033203125" xlink:href="#BitstreamVeraSans-Roman-30"/>
      </g>
     </g>
    </g>
   </g>
  </g>
 </g>
 <defs>
  <clipPath id="pf3ddb53ba2">
   <rect height="345.6" width="446.4" x="72.0" y="43.2"/>
  </clipPath>
 </defs>
</svg>
