<?xml version="1.0" encoding="utf-8" standalone="no"?>
<!DOCTYPE svg PUBLIC "-//W3C//DTD SVG 1.1//EN"
  "http://www.w3.org/Graphics/SVG/1.1/DTD/svg11.dtd">
<!-- Created with matplotlib (http://matplotlib.org/) -->
<svg height="432pt" version="1.1" viewBox="0 0 576 432" width="576pt" xmlns="http://www.w3.org/2000/svg" xmlns:xlink="http://www.w3.org/1999/xlink">
 <defs>
  <style type="text/css">
*{stroke-linecap:butt;stroke-linejoin:round;stroke-miterlimit:100000;}
  </style>
 </defs>
 <g id="figure_1">
  <g id="patch_1">
   <path d="M 0 432 
L 576 432 
L 576 0 
L 0 0 
z
" style="fill:#ffffff;"/>
  </g>
  <g id="axes_1">
   <g id="patch_2">
    <path d="M 72 388.8 
L 518.4 388.8 
L 518.4 43.2 
L 72 43.2 
z
" style="fill:#ffffff;"/>
   </g>
   <g id="PathCollection_1">
    <defs>
     <path d="M 0 2.236068 
C 0.593012 2.236068 1.161816 2.000462 1.581139 1.581139 
C 2.000462 1.161816 2.236068 0.593012 2.236068 0 
C 2.236068 -0.593012 2.000462 -1.161816 1.581139 -1.581139 
C 1.161816 -2.000462 0.593012 -2.236068 0 -2.236068 
C -0.593012 -2.236068 -1.161816 -2.000462 -1.581139 -1.581139 
C -2.000462 -1.161816 -2.236068 -0.593012 -2.236068 0 
C -2.236068 0.593012 -2.000462 1.161816 -1.581139 1.581139 
C -1.161816 2.000462 -0.593012 2.236068 0 2.236068 
z
" id="m506ddc6a43" style="stroke:#000000;"/>
    </defs>
    <g clip-path="url(#p1f3b185e52)">
     <use style="fill:#0000ff;stroke:#000000;" x="109.2" xlink:href="#m506ddc6a43" y="148.619753781"/>
     <use style="fill:#0000ff;stroke:#000000;" x="111.069346734" xlink:href="#m506ddc6a43" y="127.80168798"/>
     <use style="fill:#0000ff;stroke:#000000;" x="112.938693467" xlink:href="#m506ddc6a43" y="106.748395738"/>
     <use style="fill:#0000ff;stroke:#000000;" x="114.808040201" xlink:href="#m506ddc6a43" y="121.920783915"/>
     <use style="fill:#0000ff;stroke:#000000;" x="116.677386935" xlink:href="#m506ddc6a43" y="129.460483162"/>
     <use style="fill:#0000ff;stroke:#000000;" x="118.546733668" xlink:href="#m506ddc6a43" y="153.936327682"/>
     <use style="fill:#0000ff;stroke:#000000;" x="120.416080402" xlink:href="#m506ddc6a43" y="146.264339543"/>
     <use style="fill:#0000ff;stroke:#000000;" x="122.285427136" xlink:href="#m506ddc6a43" y="170.340752366"/>
     <use style="fill:#0000ff;stroke:#000000;" x="124.154773869" xlink:href="#m506ddc6a43" y="179.978016583"/>
     <use style="fill:#0000ff;stroke:#000000;" x="126.024120603" xlink:href="#m506ddc6a43" y="146.805273539"/>
     <use style="fill:#0000ff;stroke:#000000;" x="127.893467337" xlink:href="#m506ddc6a43" y="125.512828978"/>
     <use style="fill:#0000ff;stroke:#000000;" x="129.76281407" xlink:href="#m506ddc6a43" y="168.670726954"/>
     <use style="fill:#0000ff;stroke:#000000;" x="131.632160804" xlink:href="#m506ddc6a43" y="177.286746745"/>
     <use style="fill:#0000ff;stroke:#000000;" x="133.501507538" xlink:href="#m506ddc6a43" y="159.23970357"/>
     <use style="fill:#0000ff;stroke:#000000;" x="135.370854271" xlink:href="#m506ddc6a43" y="181.032554547"/>
     <use style="fill:#0000ff;stroke:#000000;" x="137.240201005" xlink:href="#m506ddc6a43" y="163.855819122"/>
     <use style="fill:#0000ff;stroke:#000000;" x="139.109547739" xlink:href="#m506ddc6a43" y="153.457051048"/>
     <use style="fill:#0000ff;stroke:#000000;" x="140.978894472" xlink:href="#m506ddc6a43" y="175.645168489"/>
     <use style="fill:#0000ff;stroke:#000000;" x="142.848241206" xlink:href="#m506ddc6a43" y="180.860735736"/>
     <use style="fill:#0000ff;stroke:#000000;" x="144.71758794" xlink:href="#m506ddc6a43" y="196.650344925"/>
     <use style="fill:#0000ff;stroke:#000000;" x="146.586934673" xlink:href="#m506ddc6a43" y="190.462945347"/>
     <use style="fill:#0000ff;stroke:#000000;" x="148.456281407" xlink:href="#m506ddc6a43" y="184.512035609"/>
     <use style="fill:#0000ff;stroke:#000000;" x="150.325628141" xlink:href="#m506ddc6a43" y="219.76193441"/>
     <use style="fill:#0000ff;stroke:#000000;" x="152.194974874" xlink:href="#m506ddc6a43" y="224.885525542"/>
     <use style="fill:#0000ff;stroke:#000000;" x="154.064321608" xlink:href="#m506ddc6a43" y="193.036741298"/>
     <use style="fill:#0000ff;stroke:#000000;" x="155.933668342" xlink:href="#m506ddc6a43" y="213.490932038"/>
     <use style="fill:#0000ff;stroke:#000000;" x="157.803015075" xlink:href="#m506ddc6a43" y="209.403130154"/>
     <use style="fill:#0000ff;stroke:#000000;" x="159.672361809" xlink:href="#m506ddc6a43" y="218.251593591"/>
     <use style="fill:#0000ff;stroke:#000000;" x="161.541708543" xlink:href="#m506ddc6a43" y="205.656130669"/>
     <use style="fill:#0000ff;stroke:#000000;" x="163.411055276" xlink:href="#m506ddc6a43" y="247.960210024"/>
     <use style="fill:#0000ff;stroke:#000000;" x="165.28040201" xlink:href="#m506ddc6a43" y="231.270806311"/>
     <use style="fill:#0000ff;stroke:#000000;" x="167.149748744" xlink:href="#m506ddc6a43" y="213.524148184"/>
     <use style="fill:#0000ff;stroke:#000000;" x="169.019095477" xlink:href="#m506ddc6a43" y="236.612563494"/>
     <use style="fill:#0000ff;stroke:#000000;" x="170.888442211" xlink:href="#m506ddc6a43" y="248.460474574"/>
     <use style="fill:#0000ff;stroke:#000000;" x="172.757788945" xlink:href="#m506ddc6a43" y="214.305447489"/>
     <use style="fill:#0000ff;stroke:#000000;" x="174.627135678" xlink:href="#m506ddc6a43" y="230.191236941"/>
     <use style="fill:#0000ff;stroke:#000000;" x="176.496482412" xlink:href="#m506ddc6a43" y="235.436434294"/>
     <use style="fill:#0000ff;stroke:#000000;" x="178.365829146" xlink:href="#m506ddc6a43" y="220.128460875"/>
     <use style="fill:#0000ff;stroke:#000000;" x="180.235175879" xlink:href="#m506ddc6a43" y="256.315617197"/>
     <use style="fill:#0000ff;stroke:#000000;" x="182.104522613" xlink:href="#m506ddc6a43" y="258.601391936"/>
     <use style="fill:#0000ff;stroke:#000000;" x="183.973869347" xlink:href="#m506ddc6a43" y="236.819313347"/>
     <use style="fill:#0000ff;stroke:#000000;" x="185.84321608" xlink:href="#m506ddc6a43" y="214.575863283"/>
     <use style="fill:#0000ff;stroke:#000000;" x="187.712562814" xlink:href="#m506ddc6a43" y="239.741033752"/>
     <use style="fill:#0000ff;stroke:#000000;" x="189.581909548" xlink:href="#m506ddc6a43" y="254.381573731"/>
     <use style="fill:#0000ff;stroke:#000000;" x="191.451256281" xlink:href="#m506ddc6a43" y="246.901315677"/>
     <use style="fill:#0000ff;stroke:#000000;" x="193.320603015" xlink:href="#m506ddc6a43" y="287.228020035"/>
     <use style="fill:#0000ff;stroke:#000000;" x="195.189949749" xlink:href="#m506ddc6a43" y="235.866249704"/>
     <use style="fill:#0000ff;stroke:#000000;" x="197.059296482" xlink:href="#m506ddc6a43" y="252.923864662"/>
     <use style="fill:#0000ff;stroke:#000000;" x="198.928643216" xlink:href="#m506ddc6a43" y="273.895376861"/>
     <use style="fill:#0000ff;stroke:#000000;" x="200.79798995" xlink:href="#m506ddc6a43" y="239.481655264"/>
     <use style="fill:#0000ff;stroke:#000000;" x="202.667336683" xlink:href="#m506ddc6a43" y="271.845806079"/>
     <use style="fill:#0000ff;stroke:#000000;" x="204.536683417" xlink:href="#m506ddc6a43" y="259.881647248"/>
     <use style="fill:#0000ff;stroke:#000000;" x="206.406030151" xlink:href="#m506ddc6a43" y="272.287344694"/>
     <use style="fill:#0000ff;stroke:#000000;" x="208.275376884" xlink:href="#m506ddc6a43" y="267.222860159"/>
     <use style="fill:#0000ff;stroke:#000000;" x="210.144723618" xlink:href="#m506ddc6a43" y="267.89990318"/>
     <use style="fill:#0000ff;stroke:#000000;" x="212.014070352" xlink:href="#m506ddc6a43" y="295.559881486"/>
     <use style="fill:#0000ff;stroke:#000000;" x="213.883417085" xlink:href="#m506ddc6a43" y="281.794861411"/>
     <use style="fill:#0000ff;stroke:#000000;" x="215.752763819" xlink:href="#m506ddc6a43" y="275.981944026"/>
     <use style="fill:#0000ff;stroke:#000000;" x="217.622110553" xlink:href="#m506ddc6a43" y="265.511772732"/>
     <use style="fill:#0000ff;stroke:#000000;" x="219.491457286" xlink:href="#m506ddc6a43" y="286.759087954"/>
     <use style="fill:#0000ff;stroke:#000000;" x="221.36080402" xlink:href="#m506ddc6a43" y="258.280217834"/>
     <use style="fill:#0000ff;stroke:#000000;" x="223.230150754" xlink:href="#m506ddc6a43" y="264.51146497"/>
     <use style="fill:#0000ff;stroke:#000000;" x="225.099497487" xlink:href="#m506ddc6a43" y="295.314320474"/>
     <use style="fill:#0000ff;stroke:#000000;" x="226.968844221" xlink:href="#m506ddc6a43" y="299.666223279"/>
     <use style="fill:#0000ff;stroke:#000000;" x="228.838190955" xlink:href="#m506ddc6a43" y="288.679109503"/>
     <use style="fill:#0000ff;stroke:#000000;" x="230.707537688" xlink:href="#m506ddc6a43" y="299.363094027"/>
     <use style="fill:#0000ff;stroke:#000000;" x="232.576884422" xlink:href="#m506ddc6a43" y="302.24748955"/>
     <use style="fill:#0000ff;stroke:#000000;" x="234.446231156" xlink:href="#m506ddc6a43" y="273.761141949"/>
     <use style="fill:#0000ff;stroke:#000000;" x="236.315577889" xlink:href="#m506ddc6a43" y="306.02016725"/>
     <use style="fill:#0000ff;stroke:#000000;" x="238.184924623" xlink:href="#m506ddc6a43" y="283.735768267"/>
     <use style="fill:#0000ff;stroke:#000000;" x="240.054271357" xlink:href="#m506ddc6a43" y="317.481478752"/>
     <use style="fill:#0000ff;stroke:#000000;" x="241.92361809" xlink:href="#m506ddc6a43" y="267.769895314"/>
     <use style="fill:#0000ff;stroke:#000000;" x="243.792964824" xlink:href="#m506ddc6a43" y="305.257951783"/>
     <use style="fill:#0000ff;stroke:#000000;" x="245.662311558" xlink:href="#m506ddc6a43" y="302.652374484"/>
     <use style="fill:#0000ff;stroke:#000000;" x="247.531658291" xlink:href="#m506ddc6a43" y="293.362236531"/>
     <use style="fill:#0000ff;stroke:#000000;" x="249.401005025" xlink:href="#m506ddc6a43" y="300.543251859"/>
     <use style="fill:#0000ff;stroke:#000000;" x="251.270351759" xlink:href="#m506ddc6a43" y="302.114336758"/>
     <use style="fill:#0000ff;stroke:#000000;" x="253.139698492" xlink:href="#m506ddc6a43" y="293.453207043"/>
     <use style="fill:#0000ff;stroke:#000000;" x="255.009045226" xlink:href="#m506ddc6a43" y="294.680358669"/>
     <use style="fill:#0000ff;stroke:#000000;" x="256.87839196" xlink:href="#m506ddc6a43" y="328.781357459"/>
     <use style="fill:#0000ff;stroke:#000000;" x="258.747738693" xlink:href="#m506ddc6a43" y="300.591929894"/>
     <use style="fill:#0000ff;stroke:#000000;" x="260.617085427" xlink:href="#m506ddc6a43" y="299.245289555"/>
     <use style="fill:#0000ff;stroke:#000000;" x="262.486432161" xlink:href="#m506ddc6a43" y="275.372024657"/>
     <use style="fill:#0000ff;stroke:#000000;" x="264.355778894" xlink:href="#m506ddc6a43" y="324.890368742"/>
     <use style="fill:#0000ff;stroke:#000000;" x="266.225125628" xlink:href="#m506ddc6a43" y="299.054997756"/>
     <use style="fill:#0000ff;stroke:#000000;" x="268.094472362" xlink:href="#m506ddc6a43" y="304.275347629"/>
     <use style="fill:#0000ff;stroke:#000000;" x="269.963819095" xlink:href="#m506ddc6a43" y="280.98885806"/>
     <use style="fill:#0000ff;stroke:#000000;" x="271.833165829" xlink:href="#m506ddc6a43" y="319.729060907"/>
     <use style="fill:#0000ff;stroke:#000000;" x="273.702512563" xlink:href="#m506ddc6a43" y="306.503841802"/>
     <use style="fill:#0000ff;stroke:#000000;" x="275.571859296" xlink:href="#m506ddc6a43" y="339.212962647"/>
     <use style="fill:#0000ff;stroke:#000000;" x="277.44120603" xlink:href="#m506ddc6a43" y="318.851461939"/>
     <use style="fill:#0000ff;stroke:#000000;" x="279.310552764" xlink:href="#m506ddc6a43" y="301.754386635"/>
     <use style="fill:#0000ff;stroke:#000000;" x="281.179899497" xlink:href="#m506ddc6a43" y="313.262607964"/>
     <use style="fill:#0000ff;stroke:#000000;" x="283.049246231" xlink:href="#m506ddc6a43" y="297.575370886"/>
     <use style="fill:#0000ff;stroke:#000000;" x="284.918592965" xlink:href="#m506ddc6a43" y="305.376043048"/>
     <use style="fill:#0000ff;stroke:#000000;" x="286.787939698" xlink:href="#m506ddc6a43" y="308.1648175"/>
     <use style="fill:#0000ff;stroke:#000000;" x="288.657286432" xlink:href="#m506ddc6a43" y="314.934548447"/>
     <use style="fill:#0000ff;stroke:#000000;" x="290.526633166" xlink:href="#m506ddc6a43" y="298.177656655"/>
     <use style="fill:#0000ff;stroke:#000000;" x="292.395979899" xlink:href="#m506ddc6a43" y="304.15157425"/>
     <use style="fill:#0000ff;stroke:#000000;" x="294.265326633" xlink:href="#m506ddc6a43" y="307.653036391"/>
     <use style="fill:#0000ff;stroke:#000000;" x="296.134673367" xlink:href="#m506ddc6a43" y="315.593106999"/>
     <use style="fill:#0000ff;stroke:#000000;" x="298.004020101" xlink:href="#m506ddc6a43" y="305.937164314"/>
     <use style="fill:#0000ff;stroke:#000000;" x="299.873366834" xlink:href="#m506ddc6a43" y="326.767037899"/>
     <use style="fill:#0000ff;stroke:#000000;" x="301.742713568" xlink:href="#m506ddc6a43" y="339.058428391"/>
     <use style="fill:#0000ff;stroke:#000000;" x="303.612060302" xlink:href="#m506ddc6a43" y="318.30851202"/>
     <use style="fill:#0000ff;stroke:#000000;" x="305.481407035" xlink:href="#m506ddc6a43" y="321.852266394"/>
     <use style="fill:#0000ff;stroke:#000000;" x="307.350753769" xlink:href="#m506ddc6a43" y="301.198949969"/>
     <use style="fill:#0000ff;stroke:#000000;" x="309.220100503" xlink:href="#m506ddc6a43" y="314.131140008"/>
     <use style="fill:#0000ff;stroke:#000000;" x="311.089447236" xlink:href="#m506ddc6a43" y="328.966094092"/>
     <use style="fill:#0000ff;stroke:#000000;" x="312.95879397" xlink:href="#m506ddc6a43" y="318.565309523"/>
     <use style="fill:#0000ff;stroke:#000000;" x="314.828140704" xlink:href="#m506ddc6a43" y="277.008655802"/>
     <use style="fill:#0000ff;stroke:#000000;" x="316.697487437" xlink:href="#m506ddc6a43" y="322.342076266"/>
     <use style="fill:#0000ff;stroke:#000000;" x="318.566834171" xlink:href="#m506ddc6a43" y="303.576137411"/>
     <use style="fill:#0000ff;stroke:#000000;" x="320.436180905" xlink:href="#m506ddc6a43" y="298.170605454"/>
     <use style="fill:#0000ff;stroke:#000000;" x="322.305527638" xlink:href="#m506ddc6a43" y="305.707012237"/>
     <use style="fill:#0000ff;stroke:#000000;" x="324.174874372" xlink:href="#m506ddc6a43" y="314.600773708"/>
     <use style="fill:#0000ff;stroke:#000000;" x="326.044221106" xlink:href="#m506ddc6a43" y="301.68816242"/>
     <use style="fill:#0000ff;stroke:#000000;" x="327.913567839" xlink:href="#m506ddc6a43" y="295.464277157"/>
     <use style="fill:#0000ff;stroke:#000000;" x="329.782914573" xlink:href="#m506ddc6a43" y="287.29228495"/>
     <use style="fill:#0000ff;stroke:#000000;" x="331.652261307" xlink:href="#m506ddc6a43" y="291.043225174"/>
     <use style="fill:#0000ff;stroke:#000000;" x="333.52160804" xlink:href="#m506ddc6a43" y="309.618839375"/>
     <use style="fill:#0000ff;stroke:#000000;" x="335.390954774" xlink:href="#m506ddc6a43" y="306.939773014"/>
     <use style="fill:#0000ff;stroke:#000000;" x="337.260301508" xlink:href="#m506ddc6a43" y="286.108913105"/>
     <use style="fill:#0000ff;stroke:#000000;" x="339.129648241" xlink:href="#m506ddc6a43" y="318.323002721"/>
     <use style="fill:#0000ff;stroke:#000000;" x="340.998994975" xlink:href="#m506ddc6a43" y="299.973129884"/>
     <use style="fill:#0000ff;stroke:#000000;" x="342.868341709" xlink:href="#m506ddc6a43" y="307.914645547"/>
     <use style="fill:#0000ff;stroke:#000000;" x="344.737688442" xlink:href="#m506ddc6a43" y="302.016428208"/>
     <use style="fill:#0000ff;stroke:#000000;" x="346.607035176" xlink:href="#m506ddc6a43" y="283.947986984"/>
     <use style="fill:#0000ff;stroke:#000000;" x="348.47638191" xlink:href="#m506ddc6a43" y="289.784492751"/>
     <use style="fill:#0000ff;stroke:#000000;" x="350.345728643" xlink:href="#m506ddc6a43" y="285.353429094"/>
     <use style="fill:#0000ff;stroke:#000000;" x="352.215075377" xlink:href="#m506ddc6a43" y="275.672412586"/>
     <use style="fill:#0000ff;stroke:#000000;" x="354.084422111" xlink:href="#m506ddc6a43" y="298.423772709"/>
     <use style="fill:#0000ff;stroke:#000000;" x="355.953768844" xlink:href="#m506ddc6a43" y="283.778963261"/>
     <use style="fill:#0000ff;stroke:#000000;" x="357.823115578" xlink:href="#m506ddc6a43" y="273.998941074"/>
     <use style="fill:#0000ff;stroke:#000000;" x="359.692462312" xlink:href="#m506ddc6a43" y="308.286804952"/>
     <use style="fill:#0000ff;stroke:#000000;" x="361.561809045" xlink:href="#m506ddc6a43" y="299.878942772"/>
     <use style="fill:#0000ff;stroke:#000000;" x="363.431155779" xlink:href="#m506ddc6a43" y="290.769154477"/>
     <use style="fill:#0000ff;stroke:#000000;" x="365.300502513" xlink:href="#m506ddc6a43" y="259.985861152"/>
     <use style="fill:#0000ff;stroke:#000000;" x="367.169849246" xlink:href="#m506ddc6a43" y="287.23005076"/>
     <use style="fill:#0000ff;stroke:#000000;" x="369.03919598" xlink:href="#m506ddc6a43" y="270.591900364"/>
     <use style="fill:#0000ff;stroke:#000000;" x="370.908542714" xlink:href="#m506ddc6a43" y="293.207458142"/>
     <use style="fill:#0000ff;stroke:#000000;" x="372.777889447" xlink:href="#m506ddc6a43" y="292.667329206"/>
     <use style="fill:#0000ff;stroke:#000000;" x="374.647236181" xlink:href="#m506ddc6a43" y="283.271220135"/>
     <use style="fill:#0000ff;stroke:#000000;" x="376.516582915" xlink:href="#m506ddc6a43" y="255.655412284"/>
     <use style="fill:#0000ff;stroke:#000000;" x="378.385929648" xlink:href="#m506ddc6a43" y="281.297395405"/>
     <use style="fill:#0000ff;stroke:#000000;" x="380.255276382" xlink:href="#m506ddc6a43" y="273.810861741"/>
     <use style="fill:#0000ff;stroke:#000000;" x="382.124623116" xlink:href="#m506ddc6a43" y="291.011793805"/>
     <use style="fill:#0000ff;stroke:#000000;" x="383.993969849" xlink:href="#m506ddc6a43" y="284.552040358"/>
     <use style="fill:#0000ff;stroke:#000000;" x="385.863316583" xlink:href="#m506ddc6a43" y="265.554821387"/>
     <use style="fill:#0000ff;stroke:#000000;" x="387.732663317" xlink:href="#m506ddc6a43" y="238.128720456"/>
     <use style="fill:#0000ff;stroke:#000000;" x="389.60201005" xlink:href="#m506ddc6a43" y="259.823739023"/>
     <use style="fill:#0000ff;stroke:#000000;" x="391.471356784" xlink:href="#m506ddc6a43" y="247.462452342"/>
     <use style="fill:#0000ff;stroke:#000000;" x="393.340703518" xlink:href="#m506ddc6a43" y="285.663210121"/>
     <use style="fill:#0000ff;stroke:#000000;" x="395.210050251" xlink:href="#m506ddc6a43" y="227.70013233"/>
     <use style="fill:#0000ff;stroke:#000000;" x="397.079396985" xlink:href="#m506ddc6a43" y="236.402545349"/>
     <use style="fill:#0000ff;stroke:#000000;" x="398.948743719" xlink:href="#m506ddc6a43" y="247.531860056"/>
     <use style="fill:#0000ff;stroke:#000000;" x="400.818090452" xlink:href="#m506ddc6a43" y="272.932151827"/>
     <use style="fill:#0000ff;stroke:#000000;" x="402.687437186" xlink:href="#m506ddc6a43" y="238.453068017"/>
     <use style="fill:#0000ff;stroke:#000000;" x="404.55678392" xlink:href="#m506ddc6a43" y="252.319487918"/>
     <use style="fill:#0000ff;stroke:#000000;" x="406.426130653" xlink:href="#m506ddc6a43" y="217.968813139"/>
     <use style="fill:#0000ff;stroke:#000000;" x="408.295477387" xlink:href="#m506ddc6a43" y="239.257218712"/>
     <use style="fill:#0000ff;stroke:#000000;" x="410.164824121" xlink:href="#m506ddc6a43" y="217.013112517"/>
     <use style="fill:#0000ff;stroke:#000000;" x="412.034170854" xlink:href="#m506ddc6a43" y="225.251852586"/>
     <use style="fill:#0000ff;stroke:#000000;" x="413.903517588" xlink:href="#m506ddc6a43" y="245.970972111"/>
     <use style="fill:#0000ff;stroke:#000000;" x="415.772864322" xlink:href="#m506ddc6a43" y="226.25680869"/>
     <use style="fill:#0000ff;stroke:#000000;" x="417.642211055" xlink:href="#m506ddc6a43" y="237.354069793"/>
     <use style="fill:#0000ff;stroke:#000000;" x="419.511557789" xlink:href="#m506ddc6a43" y="232.941778558"/>
     <use style="fill:#0000ff;stroke:#000000;" x="421.380904523" xlink:href="#m506ddc6a43" y="228.915016632"/>
     <use style="fill:#0000ff;stroke:#000000;" x="423.250251256" xlink:href="#m506ddc6a43" y="230.332356255"/>
     <use style="fill:#0000ff;stroke:#000000;" x="425.11959799" xlink:href="#m506ddc6a43" y="218.958263739"/>
     <use style="fill:#0000ff;stroke:#000000;" x="426.988944724" xlink:href="#m506ddc6a43" y="217.346311416"/>
     <use style="fill:#0000ff;stroke:#000000;" x="428.858291457" xlink:href="#m506ddc6a43" y="221.578517865"/>
     <use style="fill:#0000ff;stroke:#000000;" x="430.727638191" xlink:href="#m506ddc6a43" y="205.396637261"/>
     <use style="fill:#0000ff;stroke:#000000;" x="432.596984925" xlink:href="#m506ddc6a43" y="225.302703831"/>
     <use style="fill:#0000ff;stroke:#000000;" x="434.466331658" xlink:href="#m506ddc6a43" y="205.129026478"/>
     <use style="fill:#0000ff;stroke:#000000;" x="436.335678392" xlink:href="#m506ddc6a43" y="204.864698968"/>
     <use style="fill:#0000ff;stroke:#000000;" x="438.205025126" xlink:href="#m506ddc6a43" y="190.557396812"/>
     <use style="fill:#0000ff;stroke:#000000;" x="440.074371859" xlink:href="#m506ddc6a43" y="202.00924234"/>
     <use style="fill:#0000ff;stroke:#000000;" x="441.943718593" xlink:href="#m506ddc6a43" y="178.959438058"/>
     <use style="fill:#0000ff;stroke:#000000;" x="443.813065327" xlink:href="#m506ddc6a43" y="195.867846152"/>
     <use style="fill:#0000ff;stroke:#000000;" x="445.68241206" xlink:href="#m506ddc6a43" y="180.213095464"/>
     <use style="fill:#0000ff;stroke:#000000;" x="447.551758794" xlink:href="#m506ddc6a43" y="181.808510447"/>
     <use style="fill:#0000ff;stroke:#000000;" x="449.421105528" xlink:href="#m506ddc6a43" y="179.874166999"/>
     <use style="fill:#0000ff;stroke:#000000;" x="451.290452261" xlink:href="#m506ddc6a43" y="193.565616784"/>
     <use style="fill:#0000ff;stroke:#000000;" x="453.159798995" xlink:href="#m506ddc6a43" y="222.986864739"/>
     <use style="fill:#0000ff;stroke:#000000;" x="455.029145729" xlink:href="#m506ddc6a43" y="169.251389044"/>
     <use style="fill:#0000ff;stroke:#000000;" x="456.898492462" xlink:href="#m506ddc6a43" y="186.735559133"/>
     <use style="fill:#0000ff;stroke:#000000;" x="458.767839196" xlink:href="#m506ddc6a43" y="153.57867616"/>
     <use style="fill:#0000ff;stroke:#000000;" x="460.63718593" xlink:href="#m506ddc6a43" y="143.630494516"/>
     <use style="fill:#0000ff;stroke:#000000;" x="462.506532663" xlink:href="#m506ddc6a43" y="151.816242134"/>
     <use style="fill:#0000ff;stroke:#000000;" x="464.375879397" xlink:href="#m506ddc6a43" y="135.753686914"/>
     <use style="fill:#0000ff;stroke:#000000;" x="466.245226131" xlink:href="#m506ddc6a43" y="155.528032348"/>
     <use style="fill:#0000ff;stroke:#000000;" x="468.114572864" xlink:href="#m506ddc6a43" y="115.085838406"/>
     <use style="fill:#0000ff;stroke:#000000;" x="469.983919598" xlink:href="#m506ddc6a43" y="128.118386908"/>
     <use style="fill:#0000ff;stroke:#000000;" x="471.853266332" xlink:href="#m506ddc6a43" y="141.322412561"/>
     <use style="fill:#0000ff;stroke:#000000;" x="473.722613065" xlink:href="#m506ddc6a43" y="132.162437228"/>
     <use style="fill:#0000ff;stroke:#000000;" x="475.591959799" xlink:href="#m506ddc6a43" y="91.8161654044"/>
     <use style="fill:#0000ff;stroke:#000000;" x="477.461306533" xlink:href="#m506ddc6a43" y="144.805956898"/>
     <use style="fill:#0000ff;stroke:#000000;" x="479.330653266" xlink:href="#m506ddc6a43" y="129.638120706"/>
     <use style="fill:#0000ff;stroke:#000000;" x="481.2" xlink:href="#m506ddc6a43" y="153.903489453"/>
    </g>
   </g>
   <g id="line2d_1">
    <path clip-path="url(#p1f3b185e52)" d="M 109.2 132.864361 
L 154.064322 198.285175 
L 165.280402 214.078136 
L 174.627136 226.857662 
L 182.104523 236.765928 
L 189.58191 246.342447 
L 197.059296 255.538095 
L 204.536683 264.302919 
L 210.144724 270.563836 
L 215.752764 276.533037 
L 221.360804 282.190098 
L 226.968844 287.513846 
L 232.576884 292.484439 
L 238.184925 297.082103 
L 243.792965 301.28787 
L 247.531658 303.865129 
L 251.270352 306.255065 
L 255.009045 308.452884 
L 258.747739 310.45386 
L 262.486432 312.253756 
L 266.225126 313.848486 
L 269.963819 315.234207 
L 273.702513 316.407649 
L 277.441206 317.365904 
L 281.179899 318.106055 
L 284.918593 318.626141 
L 288.657286 318.924409 
L 292.39598 318.999401 
L 296.134673 318.850268 
L 299.873367 318.476916 
L 303.61206 317.879355 
L 307.350754 317.05845 
L 311.089447 316.015283 
L 314.828141 314.751903 
L 318.566834 313.270728 
L 322.305528 311.574686 
L 326.044221 309.667421 
L 329.782915 307.553202 
L 333.521608 305.236683 
L 337.260302 302.723299 
L 340.998995 300.019072 
L 346.607035 295.619216 
L 352.215075 290.828985 
L 357.823116 285.67541 
L 363.431156 280.187957 
L 369.039196 274.398354 
L 374.647236 268.340235 
L 382.124623 259.9063 
L 389.60201 251.145109 
L 400.81809 237.586658 
L 428.858291 203.347137 
L 438.205025 192.400738 
L 445.682412 183.983128 
L 453.159799 175.937153 
L 458.767839 170.181702 
L 464.375879 164.688503 
L 469.98392 159.476864 
L 475.59196 154.56284 
L 481.2 149.960129 
L 481.2 149.960129 
" style="fill:none;stroke:#ff0000;stroke-linecap:square;stroke-width:5.0;"/>
   </g>
   <g id="patch_3">
    <path d="M 72 388.8 
L 518.4 388.8 
" style="fill:none;stroke:#000000;stroke-linecap:square;stroke-linejoin:miter;"/>
   </g>
   <g id="patch_4">
    <path d="M 518.4 388.8 
L 518.4 43.2 
" style="fill:none;stroke:#000000;stroke-linecap:square;stroke-linejoin:miter;"/>
   </g>
   <g id="patch_5">
    <path d="M 72 43.2 
L 518.4 43.2 
" style="fill:none;stroke:#000000;stroke-linecap:square;stroke-linejoin:miter;"/>
   </g>
   <g id="patch_6">
    <path d="M 72 388.8 
L 72 43.2 
" style="fill:none;stroke:#000000;stroke-linecap:square;stroke-linejoin:miter;"/>
   </g>
   <g id="matplotlib.axis_1">
    <g id="xtick_1">
     <g id="line2d_2">
      <defs>
       <path d="M 0 0 
L 0 -4 
" id="mc5e7414f00" style="stroke:#000000;stroke-width:0.5;"/>
      </defs>
      <g>
       <use style="stroke:#000000;stroke-width:0.5;" x="72.0" xlink:href="#mc5e7414f00" y="388.8"/>
      </g>
     </g>
     <g id="line2d_3">
      <defs>
       <path d="M 0 0 
L 0 4 
" id="mc945f7fe42" style="stroke:#000000;stroke-width:0.5;"/>
      </defs>
      <g>
       <use style="stroke:#000000;stroke-width:0.5;" x="72.0" xlink:href="#mc945f7fe42" y="43.2"/>
      </g>
     </g>
     <g id="text_1">
      <!-- −0.6 -->
      <defs>
       <path d="M 10.6875 12.40625 
L 21 12.40625 
L 21 0 
L 10.6875 0 
z
" id="BitstreamVeraSans-Roman-2e"/>
       <path d="M 31.78125 66.40625 
Q 24.171875 66.40625 20.328125 58.90625 
Q 16.5 51.421875 16.5 36.375 
Q 16.5 21.390625 20.328125 13.890625 
Q 24.171875 6.390625 31.78125 6.390625 
Q 39.453125 6.390625 43.28125 13.890625 
Q 47.125 21.390625 47.125 36.375 
Q 47.125 51.421875 43.28125 58.90625 
Q 39.453125 66.40625 31.78125 66.40625 
M 31.78125 74.21875 
Q 44.046875 74.21875 50.515625 64.515625 
Q 56.984375 54.828125 56.984375 36.375 
Q 56.984375 17.96875 50.515625 8.265625 
Q 44.046875 -1.421875 31.78125 -1.421875 
Q 19.53125 -1.421875 13.0625 8.265625 
Q 6.59375 17.96875 6.59375 36.375 
Q 6.59375 54.828125 13.0625 64.515625 
Q 19.53125 74.21875 31.78125 74.21875 
" id="BitstreamVeraSans-Roman-30"/>
       <path d="M 10.59375 35.5 
L 73.1875 35.5 
L 73.1875 27.203125 
L 10.59375 27.203125 
z
" id="BitstreamVeraSans-Roman-2212"/>
       <path d="M 33.015625 40.375 
Q 26.375 40.375 22.484375 35.828125 
Q 18.609375 31.296875 18.609375 23.390625 
Q 18.609375 15.53125 22.484375 10.953125 
Q 26.375 6.390625 33.015625 6.390625 
Q 39.65625 6.390625 43.53125 10.953125 
Q 47.40625 15.53125 47.40625 23.390625 
Q 47.40625 31.296875 43.53125 35.828125 
Q 39.65625 40.375 33.015625 40.375 
M 52.59375 71.296875 
L 52.59375 62.3125 
Q 48.875 64.0625 45.09375 64.984375 
Q 41.3125 65.921875 37.59375 65.921875 
Q 27.828125 65.921875 22.671875 59.328125 
Q 17.53125 52.734375 16.796875 39.40625 
Q 19.671875 43.65625 24.015625 45.921875 
Q 28.375 48.1875 33.59375 48.1875 
Q 44.578125 48.1875 50.953125 41.515625 
Q 57.328125 34.859375 57.328125 23.390625 
Q 57.328125 12.15625 50.6875 5.359375 
Q 44.046875 -1.421875 33.015625 -1.421875 
Q 20.359375 -1.421875 13.671875 8.265625 
Q 6.984375 17.96875 6.984375 36.375 
Q 6.984375 53.65625 15.1875 63.9375 
Q 23.390625 74.21875 37.203125 74.21875 
Q 40.921875 74.21875 44.703125 73.484375 
Q 48.484375 72.75 52.59375 71.296875 
" id="BitstreamVeraSans-Roman-36"/>
      </defs>
      <g transform="translate(57.4303125 401.918125)scale(0.12 -0.12)">
       <use xlink:href="#BitstreamVeraSans-Roman-2212"/>
       <use x="83.7890625" xlink:href="#BitstreamVeraSans-Roman-30"/>
       <use x="147.412109375" xlink:href="#BitstreamVeraSans-Roman-2e"/>
       <use x="179.19921875" xlink:href="#BitstreamVeraSans-Roman-36"/>
      </g>
     </g>
    </g>
    <g id="xtick_2">
     <g id="line2d_4">
      <g>
       <use style="stroke:#000000;stroke-width:0.5;" x="146.4" xlink:href="#mc5e7414f00" y="388.8"/>
      </g>
     </g>
     <g id="line2d_5">
      <g>
       <use style="stroke:#000000;stroke-width:0.5;" x="146.4" xlink:href="#mc945f7fe42" y="43.2"/>
      </g>
     </g>
     <g id="text_2">
      <!-- −0.4 -->
      <defs>
       <path d="M 37.796875 64.3125 
L 12.890625 25.390625 
L 37.796875 25.390625 
z
M 35.203125 72.90625 
L 47.609375 72.90625 
L 47.609375 25.390625 
L 58.015625 25.390625 
L 58.015625 17.1875 
L 47.609375 17.1875 
L 47.609375 0 
L 37.796875 0 
L 37.796875 17.1875 
L 4.890625 17.1875 
L 4.890625 26.703125 
z
" id="BitstreamVeraSans-Roman-34"/>
      </defs>
      <g transform="translate(131.8303125 401.918125)scale(0.12 -0.12)">
       <use xlink:href="#BitstreamVeraSans-Roman-2212"/>
       <use x="83.7890625" xlink:href="#BitstreamVeraSans-Roman-30"/>
       <use x="147.412109375" xlink:href="#BitstreamVeraSans-Roman-2e"/>
       <use x="179.19921875" xlink:href="#BitstreamVeraSans-Roman-34"/>
      </g>
     </g>
    </g>
    <g id="xtick_3">
     <g id="line2d_6">
      <g>
       <use style="stroke:#000000;stroke-width:0.5;" x="220.8" xlink:href="#mc5e7414f00" y="388.8"/>
      </g>
     </g>
     <g id="line2d_7">
      <g>
       <use style="stroke:#000000;stroke-width:0.5;" x="220.8" xlink:href="#mc945f7fe42" y="43.2"/>
      </g>
     </g>
     <g id="text_3">
      <!-- −0.2 -->
      <defs>
       <path d="M 19.1875 8.296875 
L 53.609375 8.296875 
L 53.609375 0 
L 7.328125 0 
L 7.328125 8.296875 
Q 12.9375 14.109375 22.625 23.890625 
Q 32.328125 33.6875 34.8125 36.53125 
Q 39.546875 41.84375 41.421875 45.53125 
Q 43.3125 49.21875 43.3125 52.78125 
Q 43.3125 58.59375 39.234375 62.25 
Q 35.15625 65.921875 28.609375 65.921875 
Q 23.96875 65.921875 18.8125 64.3125 
Q 13.671875 62.703125 7.8125 59.421875 
L 7.8125 69.390625 
Q 13.765625 71.78125 18.9375 73 
Q 24.125 74.21875 28.421875 74.21875 
Q 39.75 74.21875 46.484375 68.546875 
Q 53.21875 62.890625 53.21875 53.421875 
Q 53.21875 48.921875 51.53125 44.890625 
Q 49.859375 40.875 45.40625 35.40625 
Q 44.1875 33.984375 37.640625 27.21875 
Q 31.109375 20.453125 19.1875 8.296875 
" id="BitstreamVeraSans-Roman-32"/>
      </defs>
      <g transform="translate(206.2303125 401.918125)scale(0.12 -0.12)">
       <use xlink:href="#BitstreamVeraSans-Roman-2212"/>
       <use x="83.7890625" xlink:href="#BitstreamVeraSans-Roman-30"/>
       <use x="147.412109375" xlink:href="#BitstreamVeraSans-Roman-2e"/>
       <use x="179.19921875" xlink:href="#BitstreamVeraSans-Roman-32"/>
      </g>
     </g>
    </g>
    <g id="xtick_4">
     <g id="line2d_8">
      <g>
       <use style="stroke:#000000;stroke-width:0.5;" x="295.2" xlink:href="#mc5e7414f00" y="388.8"/>
      </g>
     </g>
     <g id="line2d_9">
      <g>
       <use style="stroke:#000000;stroke-width:0.5;" x="295.2" xlink:href="#mc945f7fe42" y="43.2"/>
      </g>
     </g>
     <g id="text_4">
      <!-- 0.0 -->
      <g transform="translate(285.658125 401.918125)scale(0.12 -0.12)">
       <use xlink:href="#BitstreamVeraSans-Roman-30"/>
       <use x="63.623046875" xlink:href="#BitstreamVeraSans-Roman-2e"/>
       <use x="95.41015625" xlink:href="#BitstreamVeraSans-Roman-30"/>
      </g>
     </g>
    </g>
    <g id="xtick_5">
     <g id="line2d_10">
      <g>
       <use style="stroke:#000000;stroke-width:0.5;" x="369.6" xlink:href="#mc5e7414f00" y="388.8"/>
      </g>
     </g>
     <g id="line2d_11">
      <g>
       <use style="stroke:#000000;stroke-width:0.5;" x="369.6" xlink:href="#mc945f7fe42" y="43.2"/>
      </g>
     </g>
     <g id="text_5">
      <!-- 0.2 -->
      <g transform="translate(360.058125 401.918125)scale(0.12 -0.12)">
       <use xlink:href="#BitstreamVeraSans-Roman-30"/>
       <use x="63.623046875" xlink:href="#BitstreamVeraSans-Roman-2e"/>
       <use x="95.41015625" xlink:href="#BitstreamVeraSans-Roman-32"/>
      </g>
     </g>
    </g>
    <g id="xtick_6">
     <g id="line2d_12">
      <g>
       <use style="stroke:#000000;stroke-width:0.5;" x="444.0" xlink:href="#mc5e7414f00" y="388.8"/>
      </g>
     </g>
     <g id="line2d_13">
      <g>
       <use style="stroke:#000000;stroke-width:0.5;" x="444.0" xlink:href="#mc945f7fe42" y="43.2"/>
      </g>
     </g>
     <g id="text_6">
      <!-- 0.4 -->
      <g transform="translate(434.458125 401.918125)scale(0.12 -0.12)">
       <use xlink:href="#BitstreamVeraSans-Roman-30"/>
       <use x="63.623046875" xlink:href="#BitstreamVeraSans-Roman-2e"/>
       <use x="95.41015625" xlink:href="#BitstreamVeraSans-Roman-34"/>
      </g>
     </g>
    </g>
    <g id="xtick_7">
     <g id="line2d_14">
      <g>
       <use style="stroke:#000000;stroke-width:0.5;" x="518.4" xlink:href="#mc5e7414f00" y="388.8"/>
      </g>
     </g>
     <g id="line2d_15">
      <g>
       <use style="stroke:#000000;stroke-width:0.5;" x="518.4" xlink:href="#mc945f7fe42" y="43.2"/>
      </g>
     </g>
     <g id="text_7">
      <!-- 0.6 -->
      <g transform="translate(508.858125 401.918125)scale(0.12 -0.12)">
       <use xlink:href="#BitstreamVeraSans-Roman-30"/>
       <use x="63.623046875" xlink:href="#BitstreamVeraSans-Roman-2e"/>
       <use x="95.41015625" xlink:href="#BitstreamVeraSans-Roman-36"/>
      </g>
     </g>
    </g>
   </g>
   <g id="matplotlib.axis_2">
    <g id="ytick_1">
     <g id="line2d_16">
      <defs>
       <path d="M 0 0 
L 4 0 
" id="m42f590d9b5" style="stroke:#000000;stroke-width:0.5;"/>
      </defs>
      <g>
       <use style="stroke:#000000;stroke-width:0.5;" x="72.0" xlink:href="#m42f590d9b5" y="388.8"/>
      </g>
     </g>
     <g id="line2d_17">
      <defs>
       <path d="M 0 0 
L -4 0 
" id="mbfcf784ed5" style="stroke:#000000;stroke-width:0.5;"/>
      </defs>
      <g>
       <use style="stroke:#000000;stroke-width:0.5;" x="518.4" xlink:href="#mbfcf784ed5" y="388.8"/>
      </g>
     </g>
     <g id="text_8">
      <!-- −0.10 -->
      <defs>
       <path d="M 12.40625 8.296875 
L 28.515625 8.296875 
L 28.515625 63.921875 
L 10.984375 60.40625 
L 10.984375 69.390625 
L 28.421875 72.90625 
L 38.28125 72.90625 
L 38.28125 8.296875 
L 54.390625 8.296875 
L 54.390625 0 
L 12.40625 0 
z
" id="BitstreamVeraSans-Roman-31"/>
      </defs>
      <g transform="translate(31.225625 392.11125)scale(0.12 -0.12)">
       <use xlink:href="#BitstreamVeraSans-Roman-2212"/>
       <use x="83.7890625" xlink:href="#BitstreamVeraSans-Roman-30"/>
       <use x="147.412109375" xlink:href="#BitstreamVeraSans-Roman-2e"/>
       <use x="179.19921875" xlink:href="#BitstreamVeraSans-Roman-31"/>
       <use x="242.822265625" xlink:href="#BitstreamVeraSans-Roman-30"/>
      </g>
     </g>
    </g>
    <g id="ytick_2">
     <g id="line2d_18">
      <g>
       <use style="stroke:#000000;stroke-width:0.5;" x="72.0" xlink:href="#m42f590d9b5" y="350.4"/>
      </g>
     </g>
     <g id="line2d_19">
      <g>
       <use style="stroke:#000000;stroke-width:0.5;" x="518.4" xlink:href="#mbfcf784ed5" y="350.4"/>
      </g>
     </g>
     <g id="text_9">
      <!-- −0.05 -->
      <defs>
       <path d="M 10.796875 72.90625 
L 49.515625 72.90625 
L 49.515625 64.59375 
L 19.828125 64.59375 
L 19.828125 46.734375 
Q 21.96875 47.46875 24.109375 47.828125 
Q 26.265625 48.1875 28.421875 48.1875 
Q 40.625 48.1875 47.75 41.5 
Q 54.890625 34.8125 54.890625 23.390625 
Q 54.890625 11.625 47.5625 5.09375 
Q 40.234375 -1.421875 26.90625 -1.421875 
Q 22.3125 -1.421875 17.546875 -0.640625 
Q 12.796875 0.140625 7.71875 1.703125 
L 7.71875 11.625 
Q 12.109375 9.234375 16.796875 8.0625 
Q 21.484375 6.890625 26.703125 6.890625 
Q 35.15625 6.890625 40.078125 11.328125 
Q 45.015625 15.765625 45.015625 23.390625 
Q 45.015625 31 40.078125 35.4375 
Q 35.15625 39.890625 26.703125 39.890625 
Q 22.75 39.890625 18.8125 39.015625 
Q 14.890625 38.140625 10.796875 36.28125 
z
" id="BitstreamVeraSans-Roman-35"/>
      </defs>
      <g transform="translate(31.225625 353.71125)scale(0.12 -0.12)">
       <use xlink:href="#BitstreamVeraSans-Roman-2212"/>
       <use x="83.7890625" xlink:href="#BitstreamVeraSans-Roman-30"/>
       <use x="147.412109375" xlink:href="#BitstreamVeraSans-Roman-2e"/>
       <use x="179.19921875" xlink:href="#BitstreamVeraSans-Roman-30"/>
       <use x="242.822265625" xlink:href="#BitstreamVeraSans-Roman-35"/>
      </g>
     </g>
    </g>
    <g id="ytick_3">
     <g id="line2d_20">
      <g>
       <use style="stroke:#000000;stroke-width:0.5;" x="72.0" xlink:href="#m42f590d9b5" y="312.0"/>
      </g>
     </g>
     <g id="line2d_21">
      <g>
       <use style="stroke:#000000;stroke-width:0.5;" x="518.4" xlink:href="#mbfcf784ed5" y="312.0"/>
      </g>
     </g>
     <g id="text_10">
      <!-- 0.00 -->
      <g transform="translate(41.28125 315.31125)scale(0.12 -0.12)">
       <use xlink:href="#BitstreamVeraSans-Roman-30"/>
       <use x="63.623046875" xlink:href="#BitstreamVeraSans-Roman-2e"/>
       <use x="95.41015625" xlink:href="#BitstreamVeraSans-Roman-30"/>
       <use x="159.033203125" xlink:href="#BitstreamVeraSans-Roman-30"/>
      </g>
     </g>
    </g>
    <g id="ytick_4">
     <g id="line2d_22">
      <g>
       <use style="stroke:#000000;stroke-width:0.5;" x="72.0" xlink:href="#m42f590d9b5" y="273.6"/>
      </g>
     </g>
     <g id="line2d_23">
      <g>
       <use style="stroke:#000000;stroke-width:0.5;" x="518.4" xlink:href="#mbfcf784ed5" y="273.6"/>
      </g>
     </g>
     <g id="text_11">
      <!-- 0.05 -->
      <g transform="translate(41.28125 276.91125)scale(0.12 -0.12)">
       <use xlink:href="#BitstreamVeraSans-Roman-30"/>
       <use x="63.623046875" xlink:href="#BitstreamVeraSans-Roman-2e"/>
       <use x="95.41015625" xlink:href="#BitstreamVeraSans-Roman-30"/>
       <use x="159.033203125" xlink:href="#BitstreamVeraSans-Roman-35"/>
      </g>
     </g>
    </g>
    <g id="ytick_5">
     <g id="line2d_24">
      <g>
       <use style="stroke:#000000;stroke-width:0.5;" x="72.0" xlink:href="#m42f590d9b5" y="235.2"/>
      </g>
     </g>
     <g id="line2d_25">
      <g>
       <use style="stroke:#000000;stroke-width:0.5;" x="518.4" xlink:href="#mbfcf784ed5" y="235.2"/>
      </g>
     </g>
     <g id="text_12">
      <!-- 0.10 -->
      <g transform="translate(41.28125 238.51125)scale(0.12 -0.12)">
       <use xlink:href="#BitstreamVeraSans-Roman-30"/>
       <use x="63.623046875" xlink:href="#BitstreamVeraSans-Roman-2e"/>
       <use x="95.41015625" xlink:href="#BitstreamVeraSans-Roman-31"/>
       <use x="159.033203125" xlink:href="#BitstreamVeraSans-Roman-30"/>
      </g>
     </g>
    </g>
    <g id="ytick_6">
     <g id="line2d_26">
      <g>
       <use style="stroke:#000000;stroke-width:0.5;" x="72.0" xlink:href="#m42f590d9b5" y="196.8"/>
      </g>
     </g>
     <g id="line2d_27">
      <g>
       <use style="stroke:#000000;stroke-width:0.5;" x="518.4" xlink:href="#mbfcf784ed5" y="196.8"/>
      </g>
     </g>
     <g id="text_13">
      <!-- 0.15 -->
      <g transform="translate(41.28125 200.11125)scale(0.12 -0.12)">
       <use xlink:href="#BitstreamVeraSans-Roman-30"/>
       <use x="63.623046875" xlink:href="#BitstreamVeraSans-Roman-2e"/>
       <use x="95.41015625" xlink:href="#BitstreamVeraSans-Roman-31"/>
       <use x="159.033203125" xlink:href="#BitstreamVeraSans-Roman-35"/>
      </g>
     </g>
    </g>
    <g id="ytick_7">
     <g id="line2d_28">
      <g>
       <use style="stroke:#000000;stroke-width:0.5;" x="72.0" xlink:href="#m42f590d9b5" y="158.4"/>
      </g>
     </g>
     <g id="line2d_29">
      <g>
       <use style="stroke:#000000;stroke-width:0.5;" x="518.4" xlink:href="#mbfcf784ed5" y="158.4"/>
      </g>
     </g>
     <g id="text_14">
      <!-- 0.20 -->
      <g transform="translate(41.28125 161.71125)scale(0.12 -0.12)">
       <use xlink:href="#BitstreamVeraSans-Roman-30"/>
       <use x="63.623046875" xlink:href="#BitstreamVeraSans-Roman-2e"/>
       <use x="95.41015625" xlink:href="#BitstreamVeraSans-Roman-32"/>
       <use x="159.033203125" xlink:href="#BitstreamVeraSans-Roman-30"/>
      </g>
     </g>
    </g>
    <g id="ytick_8">
     <g id="line2d_30">
      <g>
       <use style="stroke:#000000;stroke-width:0.5;" x="72.0" xlink:href="#m42f590d9b5" y="120.0"/>
      </g>
     </g>
     <g id="line2d_31">
      <g>
       <use style="stroke:#000000;stroke-width:0.5;" x="518.4" xlink:href="#mbfcf784ed5" y="120.0"/>
      </g>
     </g>
     <g id="text_15">
      <!-- 0.25 -->
      <g transform="translate(41.28125 123.31125)scale(0.12 -0.12)">
       <use xlink:href="#BitstreamVeraSans-Roman-30"/>
       <use x="63.623046875" xlink:href="#BitstreamVeraSans-Roman-2e"/>
       <use x="95.41015625" xlink:href="#BitstreamVeraSans-Roman-32"/>
       <use x="159.033203125" xlink:href="#BitstreamVeraSans-Roman-35"/>
      </g>
     </g>
    </g>
    <g id="ytick_9">
     <g id="line2d_32">
      <g>
       <use style="stroke:#000000;stroke-width:0.5;" x="72.0" xlink:href="#m42f590d9b5" y="81.6"/>
      </g>
     </g>
     <g id="line2d_33">
      <g>
       <use style="stroke:#000000;stroke-width:0.5;" x="518.4" xlink:href="#mbfcf784ed5" y="81.6"/>
      </g>
     </g>
     <g id="text_16">
      <!-- 0.30 -->
      <defs>
       <path d="M 40.578125 39.3125 
Q 47.65625 37.796875 51.625 33 
Q 55.609375 28.21875 55.609375 21.1875 
Q 55.609375 10.40625 48.1875 4.484375 
Q 40.765625 -1.421875 27.09375 -1.421875 
Q 22.515625 -1.421875 17.65625 -0.515625 
Q 12.796875 0.390625 7.625 2.203125 
L 7.625 11.71875 
Q 11.71875 9.328125 16.59375 8.109375 
Q 21.484375 6.890625 26.8125 6.890625 
Q 36.078125 6.890625 40.9375 10.546875 
Q 45.796875 14.203125 45.796875 21.1875 
Q 45.796875 27.640625 41.28125 31.265625 
Q 36.765625 34.90625 28.71875 34.90625 
L 20.21875 34.90625 
L 20.21875 43.015625 
L 29.109375 43.015625 
Q 36.375 43.015625 40.234375 45.921875 
Q 44.09375 48.828125 44.09375 54.296875 
Q 44.09375 59.90625 40.109375 62.90625 
Q 36.140625 65.921875 28.71875 65.921875 
Q 24.65625 65.921875 20.015625 65.03125 
Q 15.375 64.15625 9.8125 62.3125 
L 9.8125 71.09375 
Q 15.4375 72.65625 20.34375 73.4375 
Q 25.25 74.21875 29.59375 74.21875 
Q 40.828125 74.21875 47.359375 69.109375 
Q 53.90625 64.015625 53.90625 55.328125 
Q 53.90625 49.265625 50.4375 45.09375 
Q 46.96875 40.921875 40.578125 39.3125 
" id="BitstreamVeraSans-Roman-33"/>
      </defs>
      <g transform="translate(41.28125 84.91125)scale(0.12 -0.12)">
       <use xlink:href="#BitstreamVeraSans-Roman-30"/>
       <use x="63.623046875" xlink:href="#BitstreamVeraSans-Roman-2e"/>
       <use x="95.41015625" xlink:href="#BitstreamVeraSans-Roman-33"/>
       <use x="159.033203125" xlink:href="#BitstreamVeraSans-Roman-30"/>
      </g>
     </g>
    </g>
    <g id="ytick_10">
     <g id="line2d_34">
      <g>
       <use style="stroke:#000000;stroke-width:0.5;" x="72.0" xlink:href="#m42f590d9b5" y="43.2"/>
      </g>
     </g>
     <g id="line2d_35">
      <g>
       <use style="stroke:#000000;stroke-width:0.5;" x="518.4" xlink:href="#mbfcf784ed5" y="43.2"/>
      </g>
     </g>
     <g id="text_17">
      <!-- 0.35 -->
      <g transform="translate(41.28125 46.51125)scale(0.12 -0.12)">
       <use xlink:href="#BitstreamVeraSans-Roman-30"/>
       <use x="63.623046875" xlink:href="#BitstreamVeraSans-Roman-2e"/>
       <use x="95.41015625" xlink:href="#BitstreamVeraSans-Roman-33"/>
       <use x="159.033203125" xlink:href="#BitstreamVeraSans-Roman-35"/>
      </g>
     </g>
    </g>
   </g>
  </g>
 </g>
 <defs>
  <clipPath id="p1f3b185e52">
   <rect height="345.6" width="446.4" x="72.0" y="43.2"/>
  </clipPath>
 </defs>
</svg>
