<?xml version="1.0" encoding="utf-8" standalone="no"?>
<!DOCTYPE svg PUBLIC "-//W3C//DTD SVG 1.1//EN"
  "http://www.w3.org/Graphics/SVG/1.1/DTD/svg11.dtd">
<!-- Created with matplotlib (http://matplotlib.org/) -->
<svg height="432pt" version="1.1" viewBox="0 0 576 432" width="576pt" xmlns="http://www.w3.org/2000/svg" xmlns:xlink="http://www.w3.org/1999/xlink">
 <defs>
  <style type="text/css">
*{stroke-linecap:butt;stroke-linejoin:round;stroke-miterlimit:100000;}
  </style>
 </defs>
 <g id="figure_1">
  <g id="patch_1">
   <path d="M 0 432 
L 576 432 
L 576 0 
L 0 0 
z
" style="fill:#ffffff;"/>
  </g>
  <g id="axes_1">
   <g id="patch_2">
    <path d="M 72 388.8 
L 518.4 388.8 
L 518.4 43.2 
L 72 43.2 
z
" style="fill:#ffffff;"/>
   </g>
   <g id="PathCollection_1">
    <defs>
     <path d="M 0 2.236068 
C 0.593012 2.236068 1.161816 2.000462 1.581139 1.581139 
C 2.000462 1.161816 2.236068 0.593012 2.236068 0 
C 2.236068 -0.593012 2.000462 -1.161816 1.581139 -1.581139 
C 1.161816 -2.000462 0.593012 -2.236068 0 -2.236068 
C -0.593012 -2.236068 -1.161816 -2.000462 -1.581139 -1.581139 
C -2.000462 -1.161816 -2.236068 -0.593012 -2.236068 0 
C -2.236068 0.593012 -2.000462 1.161816 -1.581139 1.581139 
C -1.161816 2.000462 -0.593012 2.236068 0 2.236068 
z
" id="mf882009c1e" style="stroke:#000000;"/>
    </defs>
    <g clip-path="url(#p2bbbcb23f9)">
     <use style="fill:#0000ff;stroke:#000000;" x="109.2" xlink:href="#mf882009c1e" y="92.5714285714"/>
     <use style="fill:#0000ff;stroke:#000000;" x="111.069346734" xlink:href="#mf882009c1e" y="97.5084467564"/>
     <use style="fill:#0000ff;stroke:#000000;" x="112.938693467" xlink:href="#mf882009c1e" y="102.395596071"/>
     <use style="fill:#0000ff;stroke:#000000;" x="114.808040201" xlink:href="#mf882009c1e" y="107.232876515"/>
     <use style="fill:#0000ff;stroke:#000000;" x="116.677386935" xlink:href="#mf882009c1e" y="112.020288088"/>
     <use style="fill:#0000ff;stroke:#000000;" x="118.546733668" xlink:href="#mf882009c1e" y="116.757830791"/>
     <use style="fill:#0000ff;stroke:#000000;" x="120.416080402" xlink:href="#mf882009c1e" y="121.445504623"/>
     <use style="fill:#0000ff;stroke:#000000;" x="122.285427136" xlink:href="#mf882009c1e" y="126.083309585"/>
     <use style="fill:#0000ff;stroke:#000000;" x="124.154773869" xlink:href="#mf882009c1e" y="130.671245676"/>
     <use style="fill:#0000ff;stroke:#000000;" x="126.024120603" xlink:href="#mf882009c1e" y="135.209312896"/>
     <use style="fill:#0000ff;stroke:#000000;" x="127.893467337" xlink:href="#mf882009c1e" y="139.697511246"/>
     <use style="fill:#0000ff;stroke:#000000;" x="129.76281407" xlink:href="#mf882009c1e" y="144.135840726"/>
     <use style="fill:#0000ff;stroke:#000000;" x="131.632160804" xlink:href="#mf882009c1e" y="148.524301334"/>
     <use style="fill:#0000ff;stroke:#000000;" x="133.501507538" xlink:href="#mf882009c1e" y="152.862893073"/>
     <use style="fill:#0000ff;stroke:#000000;" x="135.370854271" xlink:href="#mf882009c1e" y="157.15161594"/>
     <use style="fill:#0000ff;stroke:#000000;" x="137.240201005" xlink:href="#mf882009c1e" y="161.390469938"/>
     <use style="fill:#0000ff;stroke:#000000;" x="139.109547739" xlink:href="#mf882009c1e" y="165.579455064"/>
     <use style="fill:#0000ff;stroke:#000000;" x="140.978894472" xlink:href="#mf882009c1e" y="169.71857132"/>
     <use style="fill:#0000ff;stroke:#000000;" x="142.848241206" xlink:href="#mf882009c1e" y="173.807818706"/>
     <use style="fill:#0000ff;stroke:#000000;" x="144.71758794" xlink:href="#mf882009c1e" y="177.847197221"/>
     <use style="fill:#0000ff;stroke:#000000;" x="146.586934673" xlink:href="#mf882009c1e" y="181.836706865"/>
     <use style="fill:#0000ff;stroke:#000000;" x="148.456281407" xlink:href="#mf882009c1e" y="185.776347639"/>
     <use style="fill:#0000ff;stroke:#000000;" x="150.325628141" xlink:href="#mf882009c1e" y="189.666119542"/>
     <use style="fill:#0000ff;stroke:#000000;" x="152.194974874" xlink:href="#mf882009c1e" y="193.506022575"/>
     <use style="fill:#0000ff;stroke:#000000;" x="154.064321608" xlink:href="#mf882009c1e" y="197.296056737"/>
     <use style="fill:#0000ff;stroke:#000000;" x="155.933668342" xlink:href="#mf882009c1e" y="201.036222029"/>
     <use style="fill:#0000ff;stroke:#000000;" x="157.803015075" xlink:href="#mf882009c1e" y="204.72651845"/>
     <use style="fill:#0000ff;stroke:#000000;" x="159.672361809" xlink:href="#mf882009c1e" y="208.366946001"/>
     <use style="fill:#0000ff;stroke:#000000;" x="161.541708543" xlink:href="#mf882009c1e" y="211.957504681"/>
     <use style="fill:#0000ff;stroke:#000000;" x="163.411055276" xlink:href="#mf882009c1e" y="215.49819449"/>
     <use style="fill:#0000ff;stroke:#000000;" x="165.28040201" xlink:href="#mf882009c1e" y="218.989015429"/>
     <use style="fill:#0000ff;stroke:#000000;" x="167.149748744" xlink:href="#mf882009c1e" y="222.429967497"/>
     <use style="fill:#0000ff;stroke:#000000;" x="169.019095477" xlink:href="#mf882009c1e" y="225.821050695"/>
     <use style="fill:#0000ff;stroke:#000000;" x="170.888442211" xlink:href="#mf882009c1e" y="229.162265022"/>
     <use style="fill:#0000ff;stroke:#000000;" x="172.757788945" xlink:href="#mf882009c1e" y="232.453610479"/>
     <use style="fill:#0000ff;stroke:#000000;" x="174.627135678" xlink:href="#mf882009c1e" y="235.695087065"/>
     <use style="fill:#0000ff;stroke:#000000;" x="176.496482412" xlink:href="#mf882009c1e" y="238.88669478"/>
     <use style="fill:#0000ff;stroke:#000000;" x="178.365829146" xlink:href="#mf882009c1e" y="242.028433625"/>
     <use style="fill:#0000ff;stroke:#000000;" x="180.235175879" xlink:href="#mf882009c1e" y="245.1203036"/>
     <use style="fill:#0000ff;stroke:#000000;" x="182.104522613" xlink:href="#mf882009c1e" y="248.162304704"/>
     <use style="fill:#0000ff;stroke:#000000;" x="183.973869347" xlink:href="#mf882009c1e" y="251.154436937"/>
     <use style="fill:#0000ff;stroke:#000000;" x="185.84321608" xlink:href="#mf882009c1e" y="254.0967003"/>
     <use style="fill:#0000ff;stroke:#000000;" x="187.712562814" xlink:href="#mf882009c1e" y="256.989094792"/>
     <use style="fill:#0000ff;stroke:#000000;" x="189.581909548" xlink:href="#mf882009c1e" y="259.831620414"/>
     <use style="fill:#0000ff;stroke:#000000;" x="191.451256281" xlink:href="#mf882009c1e" y="262.624277165"/>
     <use style="fill:#0000ff;stroke:#000000;" x="193.320603015" xlink:href="#mf882009c1e" y="265.367065045"/>
     <use style="fill:#0000ff;stroke:#000000;" x="195.189949749" xlink:href="#mf882009c1e" y="268.059984055"/>
     <use style="fill:#0000ff;stroke:#000000;" x="197.059296482" xlink:href="#mf882009c1e" y="270.703034195"/>
     <use style="fill:#0000ff;stroke:#000000;" x="198.928643216" xlink:href="#mf882009c1e" y="273.296215464"/>
     <use style="fill:#0000ff;stroke:#000000;" x="200.79798995" xlink:href="#mf882009c1e" y="275.839527862"/>
     <use style="fill:#0000ff;stroke:#000000;" x="202.667336683" xlink:href="#mf882009c1e" y="278.33297139"/>
     <use style="fill:#0000ff;stroke:#000000;" x="204.536683417" xlink:href="#mf882009c1e" y="280.776546047"/>
     <use style="fill:#0000ff;stroke:#000000;" x="206.406030151" xlink:href="#mf882009c1e" y="283.170251833"/>
     <use style="fill:#0000ff;stroke:#000000;" x="208.275376884" xlink:href="#mf882009c1e" y="285.51408875"/>
     <use style="fill:#0000ff;stroke:#000000;" x="210.144723618" xlink:href="#mf882009c1e" y="287.808056795"/>
     <use style="fill:#0000ff;stroke:#000000;" x="212.014070352" xlink:href="#mf882009c1e" y="290.05215597"/>
     <use style="fill:#0000ff;stroke:#000000;" x="213.883417085" xlink:href="#mf882009c1e" y="292.246386275"/>
     <use style="fill:#0000ff;stroke:#000000;" x="215.752763819" xlink:href="#mf882009c1e" y="294.390747708"/>
     <use style="fill:#0000ff;stroke:#000000;" x="217.622110553" xlink:href="#mf882009c1e" y="296.485240272"/>
     <use style="fill:#0000ff;stroke:#000000;" x="219.491457286" xlink:href="#mf882009c1e" y="298.529863964"/>
     <use style="fill:#0000ff;stroke:#000000;" x="221.36080402" xlink:href="#mf882009c1e" y="300.524618787"/>
     <use style="fill:#0000ff;stroke:#000000;" x="223.230150754" xlink:href="#mf882009c1e" y="302.469504738"/>
     <use style="fill:#0000ff;stroke:#000000;" x="225.099497487" xlink:href="#mf882009c1e" y="304.364521819"/>
     <use style="fill:#0000ff;stroke:#000000;" x="226.968844221" xlink:href="#mf882009c1e" y="306.20967003"/>
     <use style="fill:#0000ff;stroke:#000000;" x="228.838190955" xlink:href="#mf882009c1e" y="308.00494937"/>
     <use style="fill:#0000ff;stroke:#000000;" x="230.707537688" xlink:href="#mf882009c1e" y="309.750359839"/>
     <use style="fill:#0000ff;stroke:#000000;" x="232.576884422" xlink:href="#mf882009c1e" y="311.445901438"/>
     <use style="fill:#0000ff;stroke:#000000;" x="234.446231156" xlink:href="#mf882009c1e" y="313.091574167"/>
     <use style="fill:#0000ff;stroke:#000000;" x="236.315577889" xlink:href="#mf882009c1e" y="314.687378024"/>
     <use style="fill:#0000ff;stroke:#000000;" x="238.184924623" xlink:href="#mf882009c1e" y="316.233313012"/>
     <use style="fill:#0000ff;stroke:#000000;" x="240.054271357" xlink:href="#mf882009c1e" y="317.729379128"/>
     <use style="fill:#0000ff;stroke:#000000;" x="241.92361809" xlink:href="#mf882009c1e" y="319.175576374"/>
     <use style="fill:#0000ff;stroke:#000000;" x="243.792964824" xlink:href="#mf882009c1e" y="320.57190475"/>
     <use style="fill:#0000ff;stroke:#000000;" x="245.662311558" xlink:href="#mf882009c1e" y="321.918364255"/>
     <use style="fill:#0000ff;stroke:#000000;" x="247.531658291" xlink:href="#mf882009c1e" y="323.214954889"/>
     <use style="fill:#0000ff;stroke:#000000;" x="249.401005025" xlink:href="#mf882009c1e" y="324.461676653"/>
     <use style="fill:#0000ff;stroke:#000000;" x="251.270351759" xlink:href="#mf882009c1e" y="325.658529547"/>
     <use style="fill:#0000ff;stroke:#000000;" x="253.139698492" xlink:href="#mf882009c1e" y="326.805513569"/>
     <use style="fill:#0000ff;stroke:#000000;" x="255.009045226" xlink:href="#mf882009c1e" y="327.902628721"/>
     <use style="fill:#0000ff;stroke:#000000;" x="256.87839196" xlink:href="#mf882009c1e" y="328.949875003"/>
     <use style="fill:#0000ff;stroke:#000000;" x="258.747738693" xlink:href="#mf882009c1e" y="329.947252414"/>
     <use style="fill:#0000ff;stroke:#000000;" x="260.617085427" xlink:href="#mf882009c1e" y="330.894760955"/>
     <use style="fill:#0000ff;stroke:#000000;" x="262.486432161" xlink:href="#mf882009c1e" y="331.792400625"/>
     <use style="fill:#0000ff;stroke:#000000;" x="264.355778894" xlink:href="#mf882009c1e" y="332.640171424"/>
     <use style="fill:#0000ff;stroke:#000000;" x="266.225125628" xlink:href="#mf882009c1e" y="333.438073353"/>
     <use style="fill:#0000ff;stroke:#000000;" x="268.094472362" xlink:href="#mf882009c1e" y="334.186106411"/>
     <use style="fill:#0000ff;stroke:#000000;" x="269.963819095" xlink:href="#mf882009c1e" y="334.884270599"/>
     <use style="fill:#0000ff;stroke:#000000;" x="271.833165829" xlink:href="#mf882009c1e" y="335.532565916"/>
     <use style="fill:#0000ff;stroke:#000000;" x="273.702512563" xlink:href="#mf882009c1e" y="336.130992363"/>
     <use style="fill:#0000ff;stroke:#000000;" x="275.571859296" xlink:href="#mf882009c1e" y="336.679549939"/>
     <use style="fill:#0000ff;stroke:#000000;" x="277.44120603" xlink:href="#mf882009c1e" y="337.178238645"/>
     <use style="fill:#0000ff;stroke:#000000;" x="279.310552764" xlink:href="#mf882009c1e" y="337.62705848"/>
     <use style="fill:#0000ff;stroke:#000000;" x="281.179899497" xlink:href="#mf882009c1e" y="338.026009444"/>
     <use style="fill:#0000ff;stroke:#000000;" x="283.049246231" xlink:href="#mf882009c1e" y="338.375091538"/>
     <use style="fill:#0000ff;stroke:#000000;" x="284.918592965" xlink:href="#mf882009c1e" y="338.674304761"/>
     <use style="fill:#0000ff;stroke:#000000;" x="286.787939698" xlink:href="#mf882009c1e" y="338.923649114"/>
     <use style="fill:#0000ff;stroke:#000000;" x="288.657286432" xlink:href="#mf882009c1e" y="339.123124596"/>
     <use style="fill:#0000ff;stroke:#000000;" x="290.526633166" xlink:href="#mf882009c1e" y="339.272731208"/>
     <use style="fill:#0000ff;stroke:#000000;" x="292.395979899" xlink:href="#mf882009c1e" y="339.372468949"/>
     <use style="fill:#0000ff;stroke:#000000;" x="294.265326633" xlink:href="#mf882009c1e" y="339.42233782"/>
     <use style="fill:#0000ff;stroke:#000000;" x="296.134673367" xlink:href="#mf882009c1e" y="339.42233782"/>
     <use style="fill:#0000ff;stroke:#000000;" x="298.004020101" xlink:href="#mf882009c1e" y="339.372468949"/>
     <use style="fill:#0000ff;stroke:#000000;" x="299.873366834" xlink:href="#mf882009c1e" y="339.272731208"/>
     <use style="fill:#0000ff;stroke:#000000;" x="301.742713568" xlink:href="#mf882009c1e" y="339.123124596"/>
     <use style="fill:#0000ff;stroke:#000000;" x="303.612060302" xlink:href="#mf882009c1e" y="338.923649114"/>
     <use style="fill:#0000ff;stroke:#000000;" x="305.481407035" xlink:href="#mf882009c1e" y="338.674304761"/>
     <use style="fill:#0000ff;stroke:#000000;" x="307.350753769" xlink:href="#mf882009c1e" y="338.375091538"/>
     <use style="fill:#0000ff;stroke:#000000;" x="309.220100503" xlink:href="#mf882009c1e" y="338.026009444"/>
     <use style="fill:#0000ff;stroke:#000000;" x="311.089447236" xlink:href="#mf882009c1e" y="337.62705848"/>
     <use style="fill:#0000ff;stroke:#000000;" x="312.95879397" xlink:href="#mf882009c1e" y="337.178238645"/>
     <use style="fill:#0000ff;stroke:#000000;" x="314.828140704" xlink:href="#mf882009c1e" y="336.679549939"/>
     <use style="fill:#0000ff;stroke:#000000;" x="316.697487437" xlink:href="#mf882009c1e" y="336.130992363"/>
     <use style="fill:#0000ff;stroke:#000000;" x="318.566834171" xlink:href="#mf882009c1e" y="335.532565916"/>
     <use style="fill:#0000ff;stroke:#000000;" x="320.436180905" xlink:href="#mf882009c1e" y="334.884270599"/>
     <use style="fill:#0000ff;stroke:#000000;" x="322.305527638" xlink:href="#mf882009c1e" y="334.186106411"/>
     <use style="fill:#0000ff;stroke:#000000;" x="324.174874372" xlink:href="#mf882009c1e" y="333.438073353"/>
     <use style="fill:#0000ff;stroke:#000000;" x="326.044221106" xlink:href="#mf882009c1e" y="332.640171424"/>
     <use style="fill:#0000ff;stroke:#000000;" x="327.913567839" xlink:href="#mf882009c1e" y="331.792400625"/>
     <use style="fill:#0000ff;stroke:#000000;" x="329.782914573" xlink:href="#mf882009c1e" y="330.894760955"/>
     <use style="fill:#0000ff;stroke:#000000;" x="331.652261307" xlink:href="#mf882009c1e" y="329.947252414"/>
     <use style="fill:#0000ff;stroke:#000000;" x="333.52160804" xlink:href="#mf882009c1e" y="328.949875003"/>
     <use style="fill:#0000ff;stroke:#000000;" x="335.390954774" xlink:href="#mf882009c1e" y="327.902628721"/>
     <use style="fill:#0000ff;stroke:#000000;" x="337.260301508" xlink:href="#mf882009c1e" y="326.805513569"/>
     <use style="fill:#0000ff;stroke:#000000;" x="339.129648241" xlink:href="#mf882009c1e" y="325.658529547"/>
     <use style="fill:#0000ff;stroke:#000000;" x="340.998994975" xlink:href="#mf882009c1e" y="324.461676653"/>
     <use style="fill:#0000ff;stroke:#000000;" x="342.868341709" xlink:href="#mf882009c1e" y="323.214954889"/>
     <use style="fill:#0000ff;stroke:#000000;" x="344.737688442" xlink:href="#mf882009c1e" y="321.918364255"/>
     <use style="fill:#0000ff;stroke:#000000;" x="346.607035176" xlink:href="#mf882009c1e" y="320.57190475"/>
     <use style="fill:#0000ff;stroke:#000000;" x="348.47638191" xlink:href="#mf882009c1e" y="319.175576374"/>
     <use style="fill:#0000ff;stroke:#000000;" x="350.345728643" xlink:href="#mf882009c1e" y="317.729379128"/>
     <use style="fill:#0000ff;stroke:#000000;" x="352.215075377" xlink:href="#mf882009c1e" y="316.233313012"/>
     <use style="fill:#0000ff;stroke:#000000;" x="354.084422111" xlink:href="#mf882009c1e" y="314.687378024"/>
     <use style="fill:#0000ff;stroke:#000000;" x="355.953768844" xlink:href="#mf882009c1e" y="313.091574167"/>
     <use style="fill:#0000ff;stroke:#000000;" x="357.823115578" xlink:href="#mf882009c1e" y="311.445901438"/>
     <use style="fill:#0000ff;stroke:#000000;" x="359.692462312" xlink:href="#mf882009c1e" y="309.750359839"/>
     <use style="fill:#0000ff;stroke:#000000;" x="361.561809045" xlink:href="#mf882009c1e" y="308.00494937"/>
     <use style="fill:#0000ff;stroke:#000000;" x="363.431155779" xlink:href="#mf882009c1e" y="306.20967003"/>
     <use style="fill:#0000ff;stroke:#000000;" x="365.300502513" xlink:href="#mf882009c1e" y="304.364521819"/>
     <use style="fill:#0000ff;stroke:#000000;" x="367.169849246" xlink:href="#mf882009c1e" y="302.469504738"/>
     <use style="fill:#0000ff;stroke:#000000;" x="369.03919598" xlink:href="#mf882009c1e" y="300.524618787"/>
     <use style="fill:#0000ff;stroke:#000000;" x="370.908542714" xlink:href="#mf882009c1e" y="298.529863964"/>
     <use style="fill:#0000ff;stroke:#000000;" x="372.777889447" xlink:href="#mf882009c1e" y="296.485240272"/>
     <use style="fill:#0000ff;stroke:#000000;" x="374.647236181" xlink:href="#mf882009c1e" y="294.390747708"/>
     <use style="fill:#0000ff;stroke:#000000;" x="376.516582915" xlink:href="#mf882009c1e" y="292.246386275"/>
     <use style="fill:#0000ff;stroke:#000000;" x="378.385929648" xlink:href="#mf882009c1e" y="290.05215597"/>
     <use style="fill:#0000ff;stroke:#000000;" x="380.255276382" xlink:href="#mf882009c1e" y="287.808056795"/>
     <use style="fill:#0000ff;stroke:#000000;" x="382.124623116" xlink:href="#mf882009c1e" y="285.51408875"/>
     <use style="fill:#0000ff;stroke:#000000;" x="383.993969849" xlink:href="#mf882009c1e" y="283.170251833"/>
     <use style="fill:#0000ff;stroke:#000000;" x="385.863316583" xlink:href="#mf882009c1e" y="280.776546047"/>
     <use style="fill:#0000ff;stroke:#000000;" x="387.732663317" xlink:href="#mf882009c1e" y="278.33297139"/>
     <use style="fill:#0000ff;stroke:#000000;" x="389.60201005" xlink:href="#mf882009c1e" y="275.839527862"/>
     <use style="fill:#0000ff;stroke:#000000;" x="391.471356784" xlink:href="#mf882009c1e" y="273.296215464"/>
     <use style="fill:#0000ff;stroke:#000000;" x="393.340703518" xlink:href="#mf882009c1e" y="270.703034195"/>
     <use style="fill:#0000ff;stroke:#000000;" x="395.210050251" xlink:href="#mf882009c1e" y="268.059984055"/>
     <use style="fill:#0000ff;stroke:#000000;" x="397.079396985" xlink:href="#mf882009c1e" y="265.367065045"/>
     <use style="fill:#0000ff;stroke:#000000;" x="398.948743719" xlink:href="#mf882009c1e" y="262.624277165"/>
     <use style="fill:#0000ff;stroke:#000000;" x="400.818090452" xlink:href="#mf882009c1e" y="259.831620414"/>
     <use style="fill:#0000ff;stroke:#000000;" x="402.687437186" xlink:href="#mf882009c1e" y="256.989094792"/>
     <use style="fill:#0000ff;stroke:#000000;" x="404.55678392" xlink:href="#mf882009c1e" y="254.0967003"/>
     <use style="fill:#0000ff;stroke:#000000;" x="406.426130653" xlink:href="#mf882009c1e" y="251.154436937"/>
     <use style="fill:#0000ff;stroke:#000000;" x="408.295477387" xlink:href="#mf882009c1e" y="248.162304704"/>
     <use style="fill:#0000ff;stroke:#000000;" x="410.164824121" xlink:href="#mf882009c1e" y="245.1203036"/>
     <use style="fill:#0000ff;stroke:#000000;" x="412.034170854" xlink:href="#mf882009c1e" y="242.028433625"/>
     <use style="fill:#0000ff;stroke:#000000;" x="413.903517588" xlink:href="#mf882009c1e" y="238.88669478"/>
     <use style="fill:#0000ff;stroke:#000000;" x="415.772864322" xlink:href="#mf882009c1e" y="235.695087065"/>
     <use style="fill:#0000ff;stroke:#000000;" x="417.642211055" xlink:href="#mf882009c1e" y="232.453610479"/>
     <use style="fill:#0000ff;stroke:#000000;" x="419.511557789" xlink:href="#mf882009c1e" y="229.162265022"/>
     <use style="fill:#0000ff;stroke:#000000;" x="421.380904523" xlink:href="#mf882009c1e" y="225.821050695"/>
     <use style="fill:#0000ff;stroke:#000000;" x="423.250251256" xlink:href="#mf882009c1e" y="222.429967497"/>
     <use style="fill:#0000ff;stroke:#000000;" x="425.11959799" xlink:href="#mf882009c1e" y="218.989015429"/>
     <use style="fill:#0000ff;stroke:#000000;" x="426.988944724" xlink:href="#mf882009c1e" y="215.49819449"/>
     <use style="fill:#0000ff;stroke:#000000;" x="428.858291457" xlink:href="#mf882009c1e" y="211.957504681"/>
     <use style="fill:#0000ff;stroke:#000000;" x="430.727638191" xlink:href="#mf882009c1e" y="208.366946001"/>
     <use style="fill:#0000ff;stroke:#000000;" x="432.596984925" xlink:href="#mf882009c1e" y="204.72651845"/>
     <use style="fill:#0000ff;stroke:#000000;" x="434.466331658" xlink:href="#mf882009c1e" y="201.036222029"/>
     <use style="fill:#0000ff;stroke:#000000;" x="436.335678392" xlink:href="#mf882009c1e" y="197.296056737"/>
     <use style="fill:#0000ff;stroke:#000000;" x="438.205025126" xlink:href="#mf882009c1e" y="193.506022575"/>
     <use style="fill:#0000ff;stroke:#000000;" x="440.074371859" xlink:href="#mf882009c1e" y="189.666119542"/>
     <use style="fill:#0000ff;stroke:#000000;" x="441.943718593" xlink:href="#mf882009c1e" y="185.776347639"/>
     <use style="fill:#0000ff;stroke:#000000;" x="443.813065327" xlink:href="#mf882009c1e" y="181.836706865"/>
     <use style="fill:#0000ff;stroke:#000000;" x="445.68241206" xlink:href="#mf882009c1e" y="177.847197221"/>
     <use style="fill:#0000ff;stroke:#000000;" x="447.551758794" xlink:href="#mf882009c1e" y="173.807818706"/>
     <use style="fill:#0000ff;stroke:#000000;" x="449.421105528" xlink:href="#mf882009c1e" y="169.71857132"/>
     <use style="fill:#0000ff;stroke:#000000;" x="451.290452261" xlink:href="#mf882009c1e" y="165.579455064"/>
     <use style="fill:#0000ff;stroke:#000000;" x="453.159798995" xlink:href="#mf882009c1e" y="161.390469938"/>
     <use style="fill:#0000ff;stroke:#000000;" x="455.029145729" xlink:href="#mf882009c1e" y="157.15161594"/>
     <use style="fill:#0000ff;stroke:#000000;" x="456.898492462" xlink:href="#mf882009c1e" y="152.862893073"/>
     <use style="fill:#0000ff;stroke:#000000;" x="458.767839196" xlink:href="#mf882009c1e" y="148.524301334"/>
     <use style="fill:#0000ff;stroke:#000000;" x="460.63718593" xlink:href="#mf882009c1e" y="144.135840726"/>
     <use style="fill:#0000ff;stroke:#000000;" x="462.506532663" xlink:href="#mf882009c1e" y="139.697511246"/>
     <use style="fill:#0000ff;stroke:#000000;" x="464.375879397" xlink:href="#mf882009c1e" y="135.209312896"/>
     <use style="fill:#0000ff;stroke:#000000;" x="466.245226131" xlink:href="#mf882009c1e" y="130.671245676"/>
     <use style="fill:#0000ff;stroke:#000000;" x="468.114572864" xlink:href="#mf882009c1e" y="126.083309585"/>
     <use style="fill:#0000ff;stroke:#000000;" x="469.983919598" xlink:href="#mf882009c1e" y="121.445504623"/>
     <use style="fill:#0000ff;stroke:#000000;" x="471.853266332" xlink:href="#mf882009c1e" y="116.757830791"/>
     <use style="fill:#0000ff;stroke:#000000;" x="473.722613065" xlink:href="#mf882009c1e" y="112.020288088"/>
     <use style="fill:#0000ff;stroke:#000000;" x="475.591959799" xlink:href="#mf882009c1e" y="107.232876515"/>
     <use style="fill:#0000ff;stroke:#000000;" x="477.461306533" xlink:href="#mf882009c1e" y="102.395596071"/>
     <use style="fill:#0000ff;stroke:#000000;" x="479.330653266" xlink:href="#mf882009c1e" y="97.5084467564"/>
     <use style="fill:#0000ff;stroke:#000000;" x="481.2" xlink:href="#mf882009c1e" y="92.5714285714"/>
    </g>
   </g>
   <g id="line2d_1">
    <path clip-path="url(#p2bbbcb23f9)" d="M 109.2 100.834437 
L 122.285427 129.211402 
L 131.632161 149.033112 
L 140.978894 168.358024 
L 148.456281 183.388659 
L 155.933668 197.980529 
L 163.411055 212.083413 
L 170.888442 225.649066 
L 178.365829 238.632214 
L 183.973869 247.962336 
L 189.58191 256.923942 
L 195.18995 265.501562 
L 200.79799 273.680871 
L 206.40603 281.447843 
L 212.01407 288.789976 
L 217.622111 295.69553 
L 223.230151 302.154266 
L 228.838191 308.156311 
L 234.446231 313.693113 
L 238.184925 317.12196 
L 241.923618 320.338783 
L 245.662312 323.341539 
L 249.401005 326.128456 
L 253.139698 328.698226 
L 256.878392 331.049217 
L 260.617085 333.180603 
L 264.355779 335.091021 
L 268.094472 336.779853 
L 271.833166 338.246316 
L 275.571859 339.489781 
L 279.310553 340.509714 
L 283.049246 341.306054 
L 286.78794 341.878684 
L 290.526633 342.227311 
L 294.265327 342.352083 
L 298.00402 342.253354 
L 301.742714 341.931477 
L 305.481407 341.38748 
L 309.220101 340.620833 
L 312.958794 339.633123 
L 316.697487 338.424971 
L 320.436181 336.997175 
L 324.174874 335.351245 
L 327.913568 333.487757 
L 331.652261 331.408739 
L 335.390955 329.115228 
L 339.129648 326.608807 
L 342.868342 323.891254 
L 346.607035 320.964512 
L 350.345729 317.830288 
L 354.084422 314.490432 
L 359.692462 309.10052 
L 365.300503 303.261475 
L 370.908543 296.980953 
L 376.516583 290.268786 
L 382.124623 283.134442 
L 387.732663 275.587946 
L 393.340704 267.640747 
L 398.948744 259.303831 
L 404.556784 250.590057 
L 410.164824 241.511652 
L 415.772864 232.082873 
L 423.250251 218.989453 
L 430.727638 205.332486 
L 438.205025 191.148396 
L 445.682412 176.475409 
L 453.159799 161.353636 
L 462.506533 141.882586 
L 471.853266 121.85681 
L 481.2 101.360986 
L 481.2 101.360986 
" style="fill:none;stroke:#ff0000;stroke-linecap:square;stroke-width:5.0;"/>
   </g>
   <g id="patch_3">
    <path d="M 72 388.8 
L 72 43.2 
" style="fill:none;stroke:#000000;stroke-linecap:square;stroke-linejoin:miter;"/>
   </g>
   <g id="patch_4">
    <path d="M 518.4 388.8 
L 518.4 43.2 
" style="fill:none;stroke:#000000;stroke-linecap:square;stroke-linejoin:miter;"/>
   </g>
   <g id="patch_5">
    <path d="M 72 388.8 
L 518.4 388.8 
" style="fill:none;stroke:#000000;stroke-linecap:square;stroke-linejoin:miter;"/>
   </g>
   <g id="patch_6">
    <path d="M 72 43.2 
L 518.4 43.2 
" style="fill:none;stroke:#000000;stroke-linecap:square;stroke-linejoin:miter;"/>
   </g>
   <g id="matplotlib.axis_1">
    <g id="xtick_1">
     <g id="line2d_2">
      <defs>
       <path d="M 0 0 
L 0 -4 
" id="m65f2929578" style="stroke:#000000;stroke-width:0.5;"/>
      </defs>
      <g>
       <use style="stroke:#000000;stroke-width:0.5;" x="72.0" xlink:href="#m65f2929578" y="388.8"/>
      </g>
     </g>
     <g id="line2d_3">
      <defs>
       <path d="M 0 0 
L 0 4 
" id="mc050569cd1" style="stroke:#000000;stroke-width:0.5;"/>
      </defs>
      <g>
       <use style="stroke:#000000;stroke-width:0.5;" x="72.0" xlink:href="#mc050569cd1" y="43.2"/>
      </g>
     </g>
     <g id="text_1">
      <!-- −0.6 -->
      <defs>
       <path d="M 10.6875 12.40625 
L 21 12.40625 
L 21 0 
L 10.6875 0 
z
" id="BitstreamVeraSans-Roman-2e"/>
       <path d="M 10.59375 35.5 
L 73.1875 35.5 
L 73.1875 27.203125 
L 10.59375 27.203125 
z
" id="BitstreamVeraSans-Roman-2212"/>
       <path d="M 33.015625 40.375 
Q 26.375 40.375 22.484375 35.828125 
Q 18.609375 31.296875 18.609375 23.390625 
Q 18.609375 15.53125 22.484375 10.953125 
Q 26.375 6.390625 33.015625 6.390625 
Q 39.65625 6.390625 43.53125 10.953125 
Q 47.40625 15.53125 47.40625 23.390625 
Q 47.40625 31.296875 43.53125 35.828125 
Q 39.65625 40.375 33.015625 40.375 
M 52.59375 71.296875 
L 52.59375 62.3125 
Q 48.875 64.0625 45.09375 64.984375 
Q 41.3125 65.921875 37.59375 65.921875 
Q 27.828125 65.921875 22.671875 59.328125 
Q 17.53125 52.734375 16.796875 39.40625 
Q 19.671875 43.65625 24.015625 45.921875 
Q 28.375 48.1875 33.59375 48.1875 
Q 44.578125 48.1875 50.953125 41.515625 
Q 57.328125 34.859375 57.328125 23.390625 
Q 57.328125 12.15625 50.6875 5.359375 
Q 44.046875 -1.421875 33.015625 -1.421875 
Q 20.359375 -1.421875 13.671875 8.265625 
Q 6.984375 17.96875 6.984375 36.375 
Q 6.984375 53.65625 15.1875 63.9375 
Q 23.390625 74.21875 37.203125 74.21875 
Q 40.921875 74.21875 44.703125 73.484375 
Q 48.484375 72.75 52.59375 71.296875 
" id="BitstreamVeraSans-Roman-36"/>
       <path d="M 31.78125 66.40625 
Q 24.171875 66.40625 20.328125 58.90625 
Q 16.5 51.421875 16.5 36.375 
Q 16.5 21.390625 20.328125 13.890625 
Q 24.171875 6.390625 31.78125 6.390625 
Q 39.453125 6.390625 43.28125 13.890625 
Q 47.125 21.390625 47.125 36.375 
Q 47.125 51.421875 43.28125 58.90625 
Q 39.453125 66.40625 31.78125 66.40625 
M 31.78125 74.21875 
Q 44.046875 74.21875 50.515625 64.515625 
Q 56.984375 54.828125 56.984375 36.375 
Q 56.984375 17.96875 50.515625 8.265625 
Q 44.046875 -1.421875 31.78125 -1.421875 
Q 19.53125 -1.421875 13.0625 8.265625 
Q 6.59375 17.96875 6.59375 36.375 
Q 6.59375 54.828125 13.0625 64.515625 
Q 19.53125 74.21875 31.78125 74.21875 
" id="BitstreamVeraSans-Roman-30"/>
      </defs>
      <g transform="translate(57.4303125 401.918125)scale(0.12 -0.12)">
       <use xlink:href="#BitstreamVeraSans-Roman-2212"/>
       <use x="83.7890625" xlink:href="#BitstreamVeraSans-Roman-30"/>
       <use x="147.412109375" xlink:href="#BitstreamVeraSans-Roman-2e"/>
       <use x="179.19921875" xlink:href="#BitstreamVeraSans-Roman-36"/>
      </g>
     </g>
    </g>
    <g id="xtick_2">
     <g id="line2d_4">
      <g>
       <use style="stroke:#000000;stroke-width:0.5;" x="146.4" xlink:href="#m65f2929578" y="388.8"/>
      </g>
     </g>
     <g id="line2d_5">
      <g>
       <use style="stroke:#000000;stroke-width:0.5;" x="146.4" xlink:href="#mc050569cd1" y="43.2"/>
      </g>
     </g>
     <g id="text_2">
      <!-- −0.4 -->
      <defs>
       <path d="M 37.796875 64.3125 
L 12.890625 25.390625 
L 37.796875 25.390625 
z
M 35.203125 72.90625 
L 47.609375 72.90625 
L 47.609375 25.390625 
L 58.015625 25.390625 
L 58.015625 17.1875 
L 47.609375 17.1875 
L 47.609375 0 
L 37.796875 0 
L 37.796875 17.1875 
L 4.890625 17.1875 
L 4.890625 26.703125 
z
" id="BitstreamVeraSans-Roman-34"/>
      </defs>
      <g transform="translate(131.8303125 401.918125)scale(0.12 -0.12)">
       <use xlink:href="#BitstreamVeraSans-Roman-2212"/>
       <use x="83.7890625" xlink:href="#BitstreamVeraSans-Roman-30"/>
       <use x="147.412109375" xlink:href="#BitstreamVeraSans-Roman-2e"/>
       <use x="179.19921875" xlink:href="#BitstreamVeraSans-Roman-34"/>
      </g>
     </g>
    </g>
    <g id="xtick_3">
     <g id="line2d_6">
      <g>
       <use style="stroke:#000000;stroke-width:0.5;" x="220.8" xlink:href="#m65f2929578" y="388.8"/>
      </g>
     </g>
     <g id="line2d_7">
      <g>
       <use style="stroke:#000000;stroke-width:0.5;" x="220.8" xlink:href="#mc050569cd1" y="43.2"/>
      </g>
     </g>
     <g id="text_3">
      <!-- −0.2 -->
      <defs>
       <path d="M 19.1875 8.296875 
L 53.609375 8.296875 
L 53.609375 0 
L 7.328125 0 
L 7.328125 8.296875 
Q 12.9375 14.109375 22.625 23.890625 
Q 32.328125 33.6875 34.8125 36.53125 
Q 39.546875 41.84375 41.421875 45.53125 
Q 43.3125 49.21875 43.3125 52.78125 
Q 43.3125 58.59375 39.234375 62.25 
Q 35.15625 65.921875 28.609375 65.921875 
Q 23.96875 65.921875 18.8125 64.3125 
Q 13.671875 62.703125 7.8125 59.421875 
L 7.8125 69.390625 
Q 13.765625 71.78125 18.9375 73 
Q 24.125 74.21875 28.421875 74.21875 
Q 39.75 74.21875 46.484375 68.546875 
Q 53.21875 62.890625 53.21875 53.421875 
Q 53.21875 48.921875 51.53125 44.890625 
Q 49.859375 40.875 45.40625 35.40625 
Q 44.1875 33.984375 37.640625 27.21875 
Q 31.109375 20.453125 19.1875 8.296875 
" id="BitstreamVeraSans-Roman-32"/>
      </defs>
      <g transform="translate(206.2303125 401.918125)scale(0.12 -0.12)">
       <use xlink:href="#BitstreamVeraSans-Roman-2212"/>
       <use x="83.7890625" xlink:href="#BitstreamVeraSans-Roman-30"/>
       <use x="147.412109375" xlink:href="#BitstreamVeraSans-Roman-2e"/>
       <use x="179.19921875" xlink:href="#BitstreamVeraSans-Roman-32"/>
      </g>
     </g>
    </g>
    <g id="xtick_4">
     <g id="line2d_8">
      <g>
       <use style="stroke:#000000;stroke-width:0.5;" x="295.2" xlink:href="#m65f2929578" y="388.8"/>
      </g>
     </g>
     <g id="line2d_9">
      <g>
       <use style="stroke:#000000;stroke-width:0.5;" x="295.2" xlink:href="#mc050569cd1" y="43.2"/>
      </g>
     </g>
     <g id="text_4">
      <!-- 0.0 -->
      <g transform="translate(285.658125 401.918125)scale(0.12 -0.12)">
       <use xlink:href="#BitstreamVeraSans-Roman-30"/>
       <use x="63.623046875" xlink:href="#BitstreamVeraSans-Roman-2e"/>
       <use x="95.41015625" xlink:href="#BitstreamVeraSans-Roman-30"/>
      </g>
     </g>
    </g>
    <g id="xtick_5">
     <g id="line2d_10">
      <g>
       <use style="stroke:#000000;stroke-width:0.5;" x="369.6" xlink:href="#m65f2929578" y="388.8"/>
      </g>
     </g>
     <g id="line2d_11">
      <g>
       <use style="stroke:#000000;stroke-width:0.5;" x="369.6" xlink:href="#mc050569cd1" y="43.2"/>
      </g>
     </g>
     <g id="text_5">
      <!-- 0.2 -->
      <g transform="translate(360.058125 401.918125)scale(0.12 -0.12)">
       <use xlink:href="#BitstreamVeraSans-Roman-30"/>
       <use x="63.623046875" xlink:href="#BitstreamVeraSans-Roman-2e"/>
       <use x="95.41015625" xlink:href="#BitstreamVeraSans-Roman-32"/>
      </g>
     </g>
    </g>
    <g id="xtick_6">
     <g id="line2d_12">
      <g>
       <use style="stroke:#000000;stroke-width:0.5;" x="444.0" xlink:href="#m65f2929578" y="388.8"/>
      </g>
     </g>
     <g id="line2d_13">
      <g>
       <use style="stroke:#000000;stroke-width:0.5;" x="444.0" xlink:href="#mc050569cd1" y="43.2"/>
      </g>
     </g>
     <g id="text_6">
      <!-- 0.4 -->
      <g transform="translate(434.458125 401.918125)scale(0.12 -0.12)">
       <use xlink:href="#BitstreamVeraSans-Roman-30"/>
       <use x="63.623046875" xlink:href="#BitstreamVeraSans-Roman-2e"/>
       <use x="95.41015625" xlink:href="#BitstreamVeraSans-Roman-34"/>
      </g>
     </g>
    </g>
    <g id="xtick_7">
     <g id="line2d_14">
      <g>
       <use style="stroke:#000000;stroke-width:0.5;" x="518.4" xlink:href="#m65f2929578" y="388.8"/>
      </g>
     </g>
     <g id="line2d_15">
      <g>
       <use style="stroke:#000000;stroke-width:0.5;" x="518.4" xlink:href="#mc050569cd1" y="43.2"/>
      </g>
     </g>
     <g id="text_7">
      <!-- 0.6 -->
      <g transform="translate(508.858125 401.918125)scale(0.12 -0.12)">
       <use xlink:href="#BitstreamVeraSans-Roman-30"/>
       <use x="63.623046875" xlink:href="#BitstreamVeraSans-Roman-2e"/>
       <use x="95.41015625" xlink:href="#BitstreamVeraSans-Roman-36"/>
      </g>
     </g>
    </g>
   </g>
   <g id="matplotlib.axis_2">
    <g id="ytick_1">
     <g id="line2d_16">
      <defs>
       <path d="M 0 0 
L 4 0 
" id="m5f129821b1" style="stroke:#000000;stroke-width:0.5;"/>
      </defs>
      <g>
       <use style="stroke:#000000;stroke-width:0.5;" x="72.0" xlink:href="#m5f129821b1" y="388.8"/>
      </g>
     </g>
     <g id="line2d_17">
      <defs>
       <path d="M 0 0 
L -4 0 
" id="m29100c8dd3" style="stroke:#000000;stroke-width:0.5;"/>
      </defs>
      <g>
       <use style="stroke:#000000;stroke-width:0.5;" x="518.4" xlink:href="#m29100c8dd3" y="388.8"/>
      </g>
     </g>
     <g id="text_8">
      <!-- −0.05 -->
      <defs>
       <path d="M 10.796875 72.90625 
L 49.515625 72.90625 
L 49.515625 64.59375 
L 19.828125 64.59375 
L 19.828125 46.734375 
Q 21.96875 47.46875 24.109375 47.828125 
Q 26.265625 48.1875 28.421875 48.1875 
Q 40.625 48.1875 47.75 41.5 
Q 54.890625 34.8125 54.890625 23.390625 
Q 54.890625 11.625 47.5625 5.09375 
Q 40.234375 -1.421875 26.90625 -1.421875 
Q 22.3125 -1.421875 17.546875 -0.640625 
Q 12.796875 0.140625 7.71875 1.703125 
L 7.71875 11.625 
Q 12.109375 9.234375 16.796875 8.0625 
Q 21.484375 6.890625 26.703125 6.890625 
Q 35.15625 6.890625 40.078125 11.328125 
Q 45.015625 15.765625 45.015625 23.390625 
Q 45.015625 31 40.078125 35.4375 
Q 35.15625 39.890625 26.703125 39.890625 
Q 22.75 39.890625 18.8125 39.015625 
Q 14.890625 38.140625 10.796875 36.28125 
z
" id="BitstreamVeraSans-Roman-35"/>
      </defs>
      <g transform="translate(31.225625 392.11125)scale(0.12 -0.12)">
       <use xlink:href="#BitstreamVeraSans-Roman-2212"/>
       <use x="83.7890625" xlink:href="#BitstreamVeraSans-Roman-30"/>
       <use x="147.412109375" xlink:href="#BitstreamVeraSans-Roman-2e"/>
       <use x="179.19921875" xlink:href="#BitstreamVeraSans-Roman-30"/>
       <use x="242.822265625" xlink:href="#BitstreamVeraSans-Roman-35"/>
      </g>
     </g>
    </g>
    <g id="ytick_2">
     <g id="line2d_18">
      <g>
       <use style="stroke:#000000;stroke-width:0.5;" x="72.0" xlink:href="#m5f129821b1" y="339.428571429"/>
      </g>
     </g>
     <g id="line2d_19">
      <g>
       <use style="stroke:#000000;stroke-width:0.5;" x="518.4" xlink:href="#m29100c8dd3" y="339.428571429"/>
      </g>
     </g>
     <g id="text_9">
      <!-- 0.00 -->
      <g transform="translate(41.28125 342.739821429)scale(0.12 -0.12)">
       <use xlink:href="#BitstreamVeraSans-Roman-30"/>
       <use x="63.623046875" xlink:href="#BitstreamVeraSans-Roman-2e"/>
       <use x="95.41015625" xlink:href="#BitstreamVeraSans-Roman-30"/>
       <use x="159.033203125" xlink:href="#BitstreamVeraSans-Roman-30"/>
      </g>
     </g>
    </g>
    <g id="ytick_3">
     <g id="line2d_20">
      <g>
       <use style="stroke:#000000;stroke-width:0.5;" x="72.0" xlink:href="#m5f129821b1" y="290.057142857"/>
      </g>
     </g>
     <g id="line2d_21">
      <g>
       <use style="stroke:#000000;stroke-width:0.5;" x="518.4" xlink:href="#m29100c8dd3" y="290.057142857"/>
      </g>
     </g>
     <g id="text_10">
      <!-- 0.05 -->
      <g transform="translate(41.28125 293.368392857)scale(0.12 -0.12)">
       <use xlink:href="#BitstreamVeraSans-Roman-30"/>
       <use x="63.623046875" xlink:href="#BitstreamVeraSans-Roman-2e"/>
       <use x="95.41015625" xlink:href="#BitstreamVeraSans-Roman-30"/>
       <use x="159.033203125" xlink:href="#BitstreamVeraSans-Roman-35"/>
      </g>
     </g>
    </g>
    <g id="ytick_4">
     <g id="line2d_22">
      <g>
       <use style="stroke:#000000;stroke-width:0.5;" x="72.0" xlink:href="#m5f129821b1" y="240.685714286"/>
      </g>
     </g>
     <g id="line2d_23">
      <g>
       <use style="stroke:#000000;stroke-width:0.5;" x="518.4" xlink:href="#m29100c8dd3" y="240.685714286"/>
      </g>
     </g>
     <g id="text_11">
      <!-- 0.10 -->
      <defs>
       <path d="M 12.40625 8.296875 
L 28.515625 8.296875 
L 28.515625 63.921875 
L 10.984375 60.40625 
L 10.984375 69.390625 
L 28.421875 72.90625 
L 38.28125 72.90625 
L 38.28125 8.296875 
L 54.390625 8.296875 
L 54.390625 0 
L 12.40625 0 
z
" id="BitstreamVeraSans-Roman-31"/>
      </defs>
      <g transform="translate(41.28125 243.996964286)scale(0.12 -0.12)">
       <use xlink:href="#BitstreamVeraSans-Roman-30"/>
       <use x="63.623046875" xlink:href="#BitstreamVeraSans-Roman-2e"/>
       <use x="95.41015625" xlink:href="#BitstreamVeraSans-Roman-31"/>
       <use x="159.033203125" xlink:href="#BitstreamVeraSans-Roman-30"/>
      </g>
     </g>
    </g>
    <g id="ytick_5">
     <g id="line2d_24">
      <g>
       <use style="stroke:#000000;stroke-width:0.5;" x="72.0" xlink:href="#m5f129821b1" y="191.314285714"/>
      </g>
     </g>
     <g id="line2d_25">
      <g>
       <use style="stroke:#000000;stroke-width:0.5;" x="518.4" xlink:href="#m29100c8dd3" y="191.314285714"/>
      </g>
     </g>
     <g id="text_12">
      <!-- 0.15 -->
      <g transform="translate(41.28125 194.625535714)scale(0.12 -0.12)">
       <use xlink:href="#BitstreamVeraSans-Roman-30"/>
       <use x="63.623046875" xlink:href="#BitstreamVeraSans-Roman-2e"/>
       <use x="95.41015625" xlink:href="#BitstreamVeraSans-Roman-31"/>
       <use x="159.033203125" xlink:href="#BitstreamVeraSans-Roman-35"/>
      </g>
     </g>
    </g>
    <g id="ytick_6">
     <g id="line2d_26">
      <g>
       <use style="stroke:#000000;stroke-width:0.5;" x="72.0" xlink:href="#m5f129821b1" y="141.942857143"/>
      </g>
     </g>
     <g id="line2d_27">
      <g>
       <use style="stroke:#000000;stroke-width:0.5;" x="518.4" xlink:href="#m29100c8dd3" y="141.942857143"/>
      </g>
     </g>
     <g id="text_13">
      <!-- 0.20 -->
      <g transform="translate(41.28125 145.254107143)scale(0.12 -0.12)">
       <use xlink:href="#BitstreamVeraSans-Roman-30"/>
       <use x="63.623046875" xlink:href="#BitstreamVeraSans-Roman-2e"/>
       <use x="95.41015625" xlink:href="#BitstreamVeraSans-Roman-32"/>
       <use x="159.033203125" xlink:href="#BitstreamVeraSans-Roman-30"/>
      </g>
     </g>
    </g>
    <g id="ytick_7">
     <g id="line2d_28">
      <g>
       <use style="stroke:#000000;stroke-width:0.5;" x="72.0" xlink:href="#m5f129821b1" y="92.5714285714"/>
      </g>
     </g>
     <g id="line2d_29">
      <g>
       <use style="stroke:#000000;stroke-width:0.5;" x="518.4" xlink:href="#m29100c8dd3" y="92.5714285714"/>
      </g>
     </g>
     <g id="text_14">
      <!-- 0.25 -->
      <g transform="translate(41.28125 95.8826785714)scale(0.12 -0.12)">
       <use xlink:href="#BitstreamVeraSans-Roman-30"/>
       <use x="63.623046875" xlink:href="#BitstreamVeraSans-Roman-2e"/>
       <use x="95.41015625" xlink:href="#BitstreamVeraSans-Roman-32"/>
       <use x="159.033203125" xlink:href="#BitstreamVeraSans-Roman-35"/>
      </g>
     </g>
    </g>
    <g id="ytick_8">
     <g id="line2d_30">
      <g>
       <use style="stroke:#000000;stroke-width:0.5;" x="72.0" xlink:href="#m5f129821b1" y="43.2"/>
      </g>
     </g>
     <g id="line2d_31">
      <g>
       <use style="stroke:#000000;stroke-width:0.5;" x="518.4" xlink:href="#m29100c8dd3" y="43.2"/>
      </g>
     </g>
     <g id="text_15">
      <!-- 0.30 -->
      <defs>
       <path d="M 40.578125 39.3125 
Q 47.65625 37.796875 51.625 33 
Q 55.609375 28.21875 55.609375 21.1875 
Q 55.609375 10.40625 48.1875 4.484375 
Q 40.765625 -1.421875 27.09375 -1.421875 
Q 22.515625 -1.421875 17.65625 -0.515625 
Q 12.796875 0.390625 7.625 2.203125 
L 7.625 11.71875 
Q 11.71875 9.328125 16.59375 8.109375 
Q 21.484375 6.890625 26.8125 6.890625 
Q 36.078125 6.890625 40.9375 10.546875 
Q 45.796875 14.203125 45.796875 21.1875 
Q 45.796875 27.640625 41.28125 31.265625 
Q 36.765625 34.90625 28.71875 34.90625 
L 20.21875 34.90625 
L 20.21875 43.015625 
L 29.109375 43.015625 
Q 36.375 43.015625 40.234375 45.921875 
Q 44.09375 48.828125 44.09375 54.296875 
Q 44.09375 59.90625 40.109375 62.90625 
Q 36.140625 65.921875 28.71875 65.921875 
Q 24.65625 65.921875 20.015625 65.03125 
Q 15.375 64.15625 9.8125 62.3125 
L 9.8125 71.09375 
Q 15.4375 72.65625 20.34375 73.4375 
Q 25.25 74.21875 29.59375 74.21875 
Q 40.828125 74.21875 47.359375 69.109375 
Q 53.90625 64.015625 53.90625 55.328125 
Q 53.90625 49.265625 50.4375 45.09375 
Q 46.96875 40.921875 40.578125 39.3125 
" id="BitstreamVeraSans-Roman-33"/>
      </defs>
      <g transform="translate(41.28125 46.51125)scale(0.12 -0.12)">
       <use xlink:href="#BitstreamVeraSans-Roman-30"/>
       <use x="63.623046875" xlink:href="#BitstreamVeraSans-Roman-2e"/>
       <use x="95.41015625" xlink:href="#BitstreamVeraSans-Roman-33"/>
       <use x="159.033203125" xlink:href="#BitstreamVeraSans-Roman-30"/>
      </g>
     </g>
    </g>
   </g>
  </g>
 </g>
 <defs>
  <clipPath id="p2bbbcb23f9">
   <rect height="345.6" width="446.4" x="72.0" y="43.2"/>
  </clipPath>
 </defs>
</svg>
